<svg height="100%" viewBox="0.00 0.00 538.13 507.20" xmlns="http://www.w3.org/2000/svg" xmlns:xlink="http://www.w3.org/1999/xlink" preserveAspectRatio="xMidYMid meet">
<defs><pattern id="warning" width="12" height="12" patternUnits="userSpaceOnUse" patternTransform="rotate(45 50 50)">
        <line class="line0" stroke-width="6px" x1="3" x2="3" y2="12"></line>
        <line class="line1" stroke-width="6px" x1="9" x2="9" y2="12"></line>
        </pattern></defs><g id="graph0" class="graph" transform="scale(1 1) rotate(0) translate(4 503.2)">

<!-- @strudel.cycles/core@0.6.8 -->
<g id="node1" class="node module-_strudel_cycles_core maintainer-yaxupaxo maintainer-felixroos license-agpl_3_0_or_later" data-module="@strudel.cycles/core@0.6.8">
<title>@strudel.cycles/core@0.6.8</title>
<path fill="none" stroke="black" d="M174.8,-37.3C174.8,-37.3 56.9,-37.3 56.9,-37.3 53.66,-37.3 50.43,-34.07 50.43,-30.83 50.43,-30.83 50.43,-24.37 50.43,-24.37 50.43,-21.13 53.66,-17.9 56.9,-17.9 56.9,-17.9 174.8,-17.9 174.8,-17.9 178.03,-17.9 181.26,-21.13 181.26,-24.37 181.26,-24.37 181.26,-30.83 181.26,-30.83 181.26,-34.07 178.03,-37.3 174.8,-37.3"></path>
<text text-anchor="middle" x="115.85" y="-24.3" font-family="Roboto Condensed, sans-serif" font-size="11.00">@strudel.cycles/core@0.6.8</text>
</g>
<!-- fraction.js@4.2.0 -->
<g id="node21" class="node module-fraction_js maintainer-infusion license-mit" data-module="fraction.js@4.2.0">
<title>fraction.js@4.2.0</title>
<path fill="none" stroke="black" d="M343.81,-19.3C343.81,-19.3 273.9,-19.3 273.9,-19.3 270.67,-19.3 267.44,-16.07 267.44,-12.83 267.44,-12.83 267.44,-6.37 267.44,-6.37 267.44,-3.13 270.67,0.1 273.9,0.1 273.9,0.1 343.81,0.1 343.81,0.1 347.05,0.1 350.28,-3.13 350.28,-6.37 350.28,-6.37 350.28,-12.83 350.28,-12.83 350.28,-16.07 347.05,-19.3 343.81,-19.3"></path>
<text text-anchor="middle" x="308.86" y="-6.3" font-family="Roboto Condensed, sans-serif" font-size="11.00">fraction.js@4.2.0</text>
</g>
<!-- @strudel.cycles/core@0.6.8&#45;&gt;fraction.js@4.2.0 -->

<!-- @strudel.cycles/csound@0.6.2 -->
<g id="node2" class="node module-_strudel_cycles_csound maintainer-yaxupaxo maintainer-felixroos license-agpl_3_0_or_later" data-module="@strudel.cycles/csound@0.6.2">
<title>@strudel.cycles/csound@0.6.2</title>
<path fill="none" stroke="black" d="M180.53,-296.3C180.53,-296.3 51.16,-296.3 51.16,-296.3 47.93,-296.3 44.7,-293.07 44.7,-289.83 44.7,-289.83 44.7,-283.37 44.7,-283.37 44.7,-280.13 47.93,-276.9 51.16,-276.9 51.16,-276.9 180.53,-276.9 180.53,-276.9 183.77,-276.9 187,-280.13 187,-283.37 187,-283.37 187,-289.83 187,-289.83 187,-293.07 183.77,-296.3 180.53,-296.3"></path>
<text text-anchor="middle" x="115.85" y="-283.3" font-family="Roboto Condensed, sans-serif" font-size="11.00">@strudel.cycles/csound@0.6.2</text>
</g>
<!-- @strudel.cycles/csound@0.6.2&#45;&gt;@strudel.cycles/core@0.6.8 -->

<!-- @strudel.cycles/webaudio@0.6.1 -->
<g id="node12" class="node module-_strudel_cycles_webaudio maintainer-yaxupaxo maintainer-felixroos license-agpl_3_0_or_later" data-module="@strudel.cycles/webaudio@0.6.1">
<title>@strudel.cycles/webaudio@0.6.1</title>
<path fill="none" stroke="black" d="M186.63,-259.3C186.63,-259.3 45.06,-259.3 45.06,-259.3 41.83,-259.3 38.59,-256.07 38.59,-252.83 38.59,-252.83 38.59,-246.37 38.59,-246.37 38.59,-243.13 41.83,-239.9 45.06,-239.9 45.06,-239.9 186.63,-239.9 186.63,-239.9 189.87,-239.9 193.1,-243.13 193.1,-246.37 193.1,-246.37 193.1,-252.83 193.1,-252.83 193.1,-256.07 189.87,-259.3 186.63,-259.3"></path>
<text text-anchor="middle" x="115.85" y="-246.3" font-family="Roboto Condensed, sans-serif" font-size="11.00">@strudel.cycles/webaudio@0.6.1</text>
</g>
<!-- @strudel.cycles/csound@0.6.2&#45;&gt;@strudel.cycles/webaudio@0.6.1 -->

<!-- @csound/browser@6.18.5 -->
<g id="node14" class="node module-_csound_browser collapsed maintainer-skyne maintainer-kunstmusik maintainer-eddyc maintainer-hlolli license-lgpl_2_1" data-module="@csound/browser@6.18.5">
<title>@csound/browser@6.18.5</title>
<path fill="none" stroke="black" d="M364.3,-257.3C364.3,-257.3 253.41,-257.3 253.41,-257.3 250.18,-257.3 246.95,-254.07 246.95,-250.83 246.95,-250.83 246.95,-244.37 246.95,-244.37 246.95,-241.13 250.18,-237.9 253.41,-237.9 253.41,-237.9 364.3,-237.9 364.3,-237.9 367.54,-237.9 370.77,-241.13 370.77,-244.37 370.77,-244.37 370.77,-250.83 370.77,-250.83 370.77,-254.07 367.54,-257.3 364.3,-257.3"></path>
<text text-anchor="middle" x="308.86" y="-244.3" font-family="Roboto Condensed, sans-serif" font-size="11.00">@csound/browser@6.18.5</text>
</g>
<!-- @strudel.cycles/csound@0.6.2&#45;&gt;@csound/browser@6.18.5 -->

<!-- @strudel.cycles/embed@0.2.0 -->
<g id="node3" class="node module-_strudel_cycles_embed maintainer-yaxupaxo maintainer-felixroos license-agpl_3_0_or_later" data-module="@strudel.cycles/embed@0.2.0">
<title>@strudel.cycles/embed@0.2.0</title>
<path fill="none" stroke="black" d="M179.69,-462.3C179.69,-462.3 52.01,-462.3 52.01,-462.3 48.77,-462.3 45.54,-459.07 45.54,-455.83 45.54,-455.83 45.54,-449.37 45.54,-449.37 45.54,-446.13 48.77,-442.9 52.01,-442.9 52.01,-442.9 179.69,-442.9 179.69,-442.9 182.92,-442.9 186.16,-446.13 186.16,-449.37 186.16,-449.37 186.16,-455.83 186.16,-455.83 186.16,-459.07 182.92,-462.3 179.69,-462.3"></path>
<text text-anchor="middle" x="115.85" y="-449.3" font-family="Roboto Condensed, sans-serif" font-size="11.00">@strudel.cycles/embed@0.2.0</text>
</g>
<!-- @strudel.cycles/midi@0.6.0 -->
<g id="node4" class="node module-_strudel_cycles_midi maintainer-yaxupaxo maintainer-felixroos license-agpl_3_0_or_later" data-module="@strudel.cycles/midi@0.6.0">
<title>@strudel.cycles/midi@0.6.0</title>
<path fill="none" stroke="black" d="M175.04,-370.3C175.04,-370.3 56.66,-370.3 56.66,-370.3 53.42,-370.3 50.19,-367.07 50.19,-363.83 50.19,-363.83 50.19,-357.37 50.19,-357.37 50.19,-354.13 53.42,-350.9 56.66,-350.9 56.66,-350.9 175.04,-350.9 175.04,-350.9 178.27,-350.9 181.5,-354.13 181.5,-357.37 181.5,-357.37 181.5,-363.83 181.5,-363.83 181.5,-367.07 178.27,-370.3 175.04,-370.3"></path>
<text text-anchor="middle" x="115.85" y="-357.3" font-family="Roboto Condensed, sans-serif" font-size="11.00">@strudel.cycles/midi@0.6.0</text>
</g>
<!-- @strudel.cycles/midi@0.6.0&#45;&gt;@strudel.cycles/core@0.6.8 -->

<!-- @strudel.cycles/webaudio@0.6.0 -->
<g id="node15" class="node module-_strudel_cycles_webaudio maintainer-yaxupaxo maintainer-felixroos license-agpl_3_0_or_later" data-module="@strudel.cycles/webaudio@0.6.0">
<title>@strudel.cycles/webaudio@0.6.0</title>
<path fill="none" stroke="black" d="M379.64,-370.3C379.64,-370.3 238.07,-370.3 238.07,-370.3 234.84,-370.3 231.6,-367.07 231.6,-363.83 231.6,-363.83 231.6,-357.37 231.6,-357.37 231.6,-354.13 234.84,-350.9 238.07,-350.9 238.07,-350.9 379.64,-350.9 379.64,-350.9 382.88,-350.9 386.11,-354.13 386.11,-357.37 386.11,-357.37 386.11,-363.83 386.11,-363.83 386.11,-367.07 382.88,-370.3 379.64,-370.3"></path>
<text text-anchor="middle" x="308.86" y="-357.3" font-family="Roboto Condensed, sans-serif" font-size="11.00">@strudel.cycles/webaudio@0.6.0</text>
</g>
<!-- @strudel.cycles/midi@0.6.0&#45;&gt;@strudel.cycles/webaudio@0.6.0 -->

<!-- webmidi@3.1.4 -->
<g id="node25" class="node module-webmidi collapsed maintainer-djipco license-apache_2_0" data-module="webmidi@3.1.4">
<title>webmidi@3.1.4</title>
<path fill="none" stroke="black" d="M340.52,-407.3C340.52,-407.3 277.2,-407.3 277.2,-407.3 273.97,-407.3 270.73,-404.07 270.73,-400.83 270.73,-400.83 270.73,-394.37 270.73,-394.37 270.73,-391.13 273.97,-387.9 277.2,-387.9 277.2,-387.9 340.52,-387.9 340.52,-387.9 343.75,-387.9 346.98,-391.13 346.98,-394.37 346.98,-394.37 346.98,-400.83 346.98,-400.83 346.98,-404.07 343.75,-407.3 340.52,-407.3"></path>
<text text-anchor="middle" x="308.86" y="-394.3" font-family="Roboto Condensed, sans-serif" font-size="11.00">webmidi@3.1.4</text>
</g>
<!-- @strudel.cycles/midi@0.6.0&#45;&gt;webmidi@3.1.4 -->

<!-- @strudel.cycles/mini@0.6.0 -->
<g id="node5" class="node module-_strudel_cycles_mini maintainer-yaxupaxo maintainer-felixroos license-agpl_3_0_or_later" data-module="@strudel.cycles/mini@0.6.0">
<title>@strudel.cycles/mini@0.6.0</title>
<path fill="none" stroke="black" d="M175.04,-111.3C175.04,-111.3 56.66,-111.3 56.66,-111.3 53.42,-111.3 50.19,-108.07 50.19,-104.83 50.19,-104.83 50.19,-98.37 50.19,-98.37 50.19,-95.13 53.42,-91.9 56.66,-91.9 56.66,-91.9 175.04,-91.9 175.04,-91.9 178.27,-91.9 181.5,-95.13 181.5,-98.37 181.5,-98.37 181.5,-104.83 181.5,-104.83 181.5,-108.07 178.27,-111.3 175.04,-111.3"></path>
<text text-anchor="middle" x="115.85" y="-98.3" font-family="Roboto Condensed, sans-serif" font-size="11.00">@strudel.cycles/mini@0.6.0</text>
</g>
<!-- @strudel.cycles/mini@0.6.0&#45;&gt;@strudel.cycles/core@0.6.8 -->

<!-- @strudel.cycles/osc@0.6.0 -->
<g id="node6" class="node module-_strudel_cycles_osc maintainer-yaxupaxo maintainer-felixroos license-agpl_3_0_or_later" data-module="@strudel.cycles/osc@0.6.0">
<title>@strudel.cycles/osc@0.6.0</title>
<path fill="none" stroke="black" d="M172.53,-222.3C172.53,-222.3 59.16,-222.3 59.16,-222.3 55.93,-222.3 52.7,-219.07 52.7,-215.83 52.7,-215.83 52.7,-209.37 52.7,-209.37 52.7,-206.13 55.93,-202.9 59.16,-202.9 59.16,-202.9 172.53,-202.9 172.53,-202.9 175.76,-202.9 179,-206.13 179,-209.37 179,-209.37 179,-215.83 179,-215.83 179,-219.07 175.76,-222.3 172.53,-222.3"></path>
<text text-anchor="middle" x="115.85" y="-209.3" font-family="Roboto Condensed, sans-serif" font-size="11.00">@strudel.cycles/osc@0.6.0</text>
</g>
<!-- @strudel.cycles/osc@0.6.0&#45;&gt;@strudel.cycles/core@0.6.8 -->

<!-- osc&#45;js@2.4.0 -->
<g id="node22" class="node module-osc_js collapsed maintainer-andreasdz license-mit" data-module="osc-js@2.4.0">
<title>osc-js@2.4.0</title>
<path fill="none" stroke="black" d="M334.18,-220.3C334.18,-220.3 283.53,-220.3 283.53,-220.3 280.3,-220.3 277.06,-217.07 277.06,-213.83 277.06,-213.83 277.06,-207.37 277.06,-207.37 277.06,-204.13 280.3,-200.9 283.53,-200.9 283.53,-200.9 334.18,-200.9 334.18,-200.9 337.42,-200.9 340.65,-204.13 340.65,-207.37 340.65,-207.37 340.65,-213.83 340.65,-213.83 340.65,-217.07 337.42,-220.3 334.18,-220.3"></path>
<text text-anchor="middle" x="308.86" y="-207.3" font-family="Roboto Condensed, sans-serif" font-size="11.00">osc-js@2.4.0</text>
</g>
<!-- @strudel.cycles/osc@0.6.0&#45;&gt;osc&#45;js@2.4.0 -->

<!-- @strudel.cycles/react@0.6.0 -->
<g id="node7" class="node module-_strudel_cycles_react collapsed maintainer-yaxupaxo maintainer-felixroos license-agpl_3_0_or_later" data-module="@strudel.cycles/react@0.6.0">
<title>@strudel.cycles/react@0.6.0</title>
<path fill="none" stroke="black" d="M175.73,-499.3C175.73,-499.3 55.96,-499.3 55.96,-499.3 52.73,-499.3 49.49,-496.07 49.49,-492.83 49.49,-492.83 49.49,-486.37 49.49,-486.37 49.49,-483.13 52.73,-479.9 55.96,-479.9 55.96,-479.9 175.73,-479.9 175.73,-479.9 178.97,-479.9 182.2,-483.13 182.2,-486.37 182.2,-486.37 182.2,-492.83 182.2,-492.83 182.2,-496.07 178.97,-499.3 175.73,-499.3"></path>
<text text-anchor="middle" x="115.85" y="-486.3" font-family="Roboto Condensed, sans-serif" font-size="11.00">@strudel.cycles/react@0.6.0</text>
</g>
<!-- @strudel.cycles/serial@0.6.0 -->
<g id="node8" class="node module-_strudel_cycles_serial maintainer-yaxupaxo maintainer-felixroos license-agpl_3_0_or_later" data-module="@strudel.cycles/serial@0.6.0">
<title>@strudel.cycles/serial@0.6.0</title>
<path fill="none" stroke="black" d="M177.19,-148.3C177.19,-148.3 54.5,-148.3 54.5,-148.3 51.27,-148.3 48.04,-145.07 48.04,-141.83 48.04,-141.83 48.04,-135.37 48.04,-135.37 48.04,-132.13 51.27,-128.9 54.5,-128.9 54.5,-128.9 177.19,-128.9 177.19,-128.9 180.42,-128.9 183.66,-132.13 183.66,-135.37 183.66,-135.37 183.66,-141.83 183.66,-141.83 183.66,-145.07 180.42,-148.3 177.19,-148.3"></path>
<text text-anchor="middle" x="115.85" y="-135.3" font-family="Roboto Condensed, sans-serif" font-size="11.00">@strudel.cycles/serial@0.6.0</text>
</g>
<!-- @strudel.cycles/serial@0.6.0&#45;&gt;@strudel.cycles/core@0.6.8 -->

<!-- @strudel.cycles/soundfonts@0.6.0 -->
<g id="node9" class="node module-_strudel_cycles_soundfonts maintainer-yaxupaxo maintainer-felixroos license-agpl_3_0_or_later" data-module="@strudel.cycles/soundfonts@0.6.0">
<title>@strudel.cycles/soundfonts@0.6.0</title>
<path fill="none" stroke="black" d="M189.15,-333.3C189.15,-333.3 42.55,-333.3 42.55,-333.3 39.31,-333.3 36.08,-330.07 36.08,-326.83 36.08,-326.83 36.08,-320.37 36.08,-320.37 36.08,-317.13 39.31,-313.9 42.55,-313.9 42.55,-313.9 189.15,-313.9 189.15,-313.9 192.38,-313.9 195.62,-317.13 195.62,-320.37 195.62,-320.37 195.62,-326.83 195.62,-326.83 195.62,-330.07 192.38,-333.3 189.15,-333.3"></path>
<text text-anchor="middle" x="115.85" y="-320.3" font-family="Roboto Condensed, sans-serif" font-size="11.00">@strudel.cycles/soundfonts@0.6.0</text>
</g>
<!-- @strudel.cycles/soundfonts@0.6.0&#45;&gt;@strudel.cycles/core@0.6.8 -->

<!-- @strudel.cycles/soundfonts@0.6.0&#45;&gt;@strudel.cycles/webaudio@0.6.0 -->

<!-- sfumato@0.1.2 -->
<g id="node23" class="node module-sfumato maintainer-felixroos license-isc" data-module="sfumato@0.1.2">
<title>sfumato@0.1.2</title>
<path fill="none" stroke="black" d="M338.96,-333.3C338.96,-333.3 278.76,-333.3 278.76,-333.3 275.52,-333.3 272.29,-330.07 272.29,-326.83 272.29,-326.83 272.29,-320.37 272.29,-320.37 272.29,-317.13 275.52,-313.9 278.76,-313.9 278.76,-313.9 338.96,-313.9 338.96,-313.9 342.19,-313.9 345.43,-317.13 345.43,-320.37 345.43,-320.37 345.43,-326.83 345.43,-326.83 345.43,-330.07 342.19,-333.3 338.96,-333.3"></path>
<text text-anchor="middle" x="308.86" y="-320.3" font-family="Roboto Condensed, sans-serif" font-size="11.00">sfumato@0.1.2</text>
</g>
<!-- @strudel.cycles/soundfonts@0.6.0&#45;&gt;sfumato@0.1.2 -->

<!-- soundfont2@0.4.0 -->
<g id="node24" class="node module-soundfont2 maintainer-mrten license-mit" data-module="soundfont2@0.4.0">
<title>soundfont2@0.4.0</title>
<path fill="none" stroke="black" d="M513.22,-314.3C513.22,-314.3 438.89,-314.3 438.89,-314.3 435.66,-314.3 432.42,-311.07 432.42,-307.83 432.42,-307.83 432.42,-301.37 432.42,-301.37 432.42,-298.13 435.66,-294.9 438.89,-294.9 438.89,-294.9 513.22,-294.9 513.22,-294.9 516.45,-294.9 519.69,-298.13 519.69,-301.37 519.69,-301.37 519.69,-307.83 519.69,-307.83 519.69,-311.07 516.45,-314.3 513.22,-314.3"></path>
<text text-anchor="middle" x="476.06" y="-301.3" font-family="Roboto Condensed, sans-serif" font-size="11.00">soundfont2@0.4.0</text>
</g>
<!-- @strudel.cycles/soundfonts@0.6.0&#45;&gt;soundfont2@0.4.0 -->

<!-- @strudel.cycles/tonal@0.6.0 -->
<g id="node10" class="node module-_strudel_cycles_tonal maintainer-yaxupaxo maintainer-felixroos license-agpl_3_0_or_later" data-module="@strudel.cycles/tonal@0.6.0">
<title>@strudel.cycles/tonal@0.6.0</title>
<path fill="none" stroke="black" d="M176.36,-425.3C176.36,-425.3 55.33,-425.3 55.33,-425.3 52.1,-425.3 48.86,-422.07 48.86,-418.83 48.86,-418.83 48.86,-412.37 48.86,-412.37 48.86,-409.13 52.1,-405.9 55.33,-405.9 55.33,-405.9 176.36,-405.9 176.36,-405.9 179.6,-405.9 182.83,-409.13 182.83,-412.37 182.83,-412.37 182.83,-418.83 182.83,-418.83 182.83,-422.07 179.6,-425.3 176.36,-425.3"></path>
<text text-anchor="middle" x="115.85" y="-412.3" font-family="Roboto Condensed, sans-serif" font-size="11.00">@strudel.cycles/tonal@0.6.0</text>
</g>
<!-- @strudel.cycles/tonal@0.6.0&#45;&gt;@strudel.cycles/core@0.6.8 -->

<!-- @tonaljs/tonal@4.10.0 -->
<g id="node16" class="node module-_tonaljs_tonal collapsed maintainer-danigb license-mit" data-module="@tonaljs/tonal@4.10.0">
<title>@tonaljs/tonal@4.10.0</title>
<path fill="none" stroke="black" d="M523.73,-463.3C523.73,-463.3 428.38,-463.3 428.38,-463.3 425.15,-463.3 421.91,-460.07 421.91,-456.83 421.91,-456.83 421.91,-450.37 421.91,-450.37 421.91,-447.13 425.15,-443.9 428.38,-443.9 428.38,-443.9 523.73,-443.9 523.73,-443.9 526.96,-443.9 530.2,-447.13 530.2,-450.37 530.2,-450.37 530.2,-456.83 530.2,-456.83 530.2,-460.07 526.96,-463.3 523.73,-463.3"></path>
<text text-anchor="middle" x="476.06" y="-450.3" font-family="Roboto Condensed, sans-serif" font-size="11.00">@tonaljs/tonal@4.10.0</text>
</g>
<!-- @strudel.cycles/tonal@0.6.0&#45;&gt;@tonaljs/tonal@4.10.0 -->

<!-- chord&#45;voicings@0.0.1 -->
<g id="node18" class="node module-chord_voicings maintainer-felixroos license-isc" data-module="chord-voicings@0.0.1">
<title>chord-voicings@0.0.1</title>
<path fill="none" stroke="black" d="M354.5,-444.3C354.5,-444.3 263.21,-444.3 263.21,-444.3 259.98,-444.3 256.74,-441.07 256.74,-437.83 256.74,-437.83 256.74,-431.37 256.74,-431.37 256.74,-428.13 259.98,-424.9 263.21,-424.9 263.21,-424.9 354.5,-424.9 354.5,-424.9 357.74,-424.9 360.97,-428.13 360.97,-431.37 360.97,-431.37 360.97,-437.83 360.97,-437.83 360.97,-441.07 357.74,-444.3 354.5,-444.3"></path>
<text text-anchor="middle" x="308.86" y="-431.3" font-family="Roboto Condensed, sans-serif" font-size="11.00">chord-voicings@0.0.1</text>
</g>
<!-- @strudel.cycles/tonal@0.6.0&#45;&gt;chord&#45;voicings@0.0.1 -->

<!-- @strudel.cycles/tonal@0.6.0&#45;&gt;webmidi@3.1.4 -->

<!-- @strudel.cycles/transpiler@0.6.0 -->
<g id="node11" class="node module-_strudel_cycles_transpiler maintainer-yaxupaxo maintainer-felixroos license-agpl_3_0_or_later" data-module="@strudel.cycles/transpiler@0.6.0">
<title>@strudel.cycles/transpiler@0.6.0</title>
<path fill="none" stroke="black" d="M185.91,-74.3C185.91,-74.3 45.79,-74.3 45.79,-74.3 42.55,-74.3 39.32,-71.07 39.32,-67.83 39.32,-67.83 39.32,-61.37 39.32,-61.37 39.32,-58.13 42.55,-54.9 45.79,-54.9 45.79,-54.9 185.91,-54.9 185.91,-54.9 189.14,-54.9 192.38,-58.13 192.38,-61.37 192.38,-61.37 192.38,-67.83 192.38,-67.83 192.38,-71.07 189.14,-74.3 185.91,-74.3"></path>
<text text-anchor="middle" x="115.85" y="-61.3" font-family="Roboto Condensed, sans-serif" font-size="11.00">@strudel.cycles/transpiler@0.6.0</text>
</g>
<!-- @strudel.cycles/transpiler@0.6.0&#45;&gt;@strudel.cycles/core@0.6.8 -->

<!-- acorn@8.8.2 -->
<g id="node17" class="node module-acorn collapsed maintainer-marijn maintainer-adrianheine maintainer-rreverser license-mit" data-module="acorn@8.8.2">
<title>acorn@8.8.2</title>
<path fill="none" stroke="black" d="M333.45,-130.3C333.45,-130.3 284.27,-130.3 284.27,-130.3 281.03,-130.3 277.8,-127.07 277.8,-123.83 277.8,-123.83 277.8,-117.37 277.8,-117.37 277.8,-114.13 281.03,-110.9 284.27,-110.9 284.27,-110.9 333.45,-110.9 333.45,-110.9 336.68,-110.9 339.92,-114.13 339.92,-117.37 339.92,-117.37 339.92,-123.83 339.92,-123.83 339.92,-127.07 336.68,-130.3 333.45,-130.3"></path>
<text text-anchor="middle" x="308.86" y="-117.3" font-family="Roboto Condensed, sans-serif" font-size="11.00">acorn@8.8.2</text>
</g>
<!-- @strudel.cycles/transpiler@0.6.0&#45;&gt;acorn@8.8.2 -->

<!-- escodegen@2.0.0 -->
<g id="node19" class="node module-escodegen collapsed maintainer-constellation maintainer-michaelficarra license-bsd_2_clause" data-module="escodegen@2.0.0">
<title>escodegen@2.0.0</title>
<path fill="none" stroke="black" d="M344.33,-93.3C344.33,-93.3 273.39,-93.3 273.39,-93.3 270.15,-93.3 266.92,-90.07 266.92,-86.83 266.92,-86.83 266.92,-80.37 266.92,-80.37 266.92,-77.13 270.15,-73.9 273.39,-73.9 273.39,-73.9 344.33,-73.9 344.33,-73.9 347.56,-73.9 350.8,-77.13 350.8,-80.37 350.8,-80.37 350.8,-86.83 350.8,-86.83 350.8,-90.07 347.56,-93.3 344.33,-93.3"></path>
<text text-anchor="middle" x="308.86" y="-80.3" font-family="Roboto Condensed, sans-serif" font-size="11.00">escodegen@2.0.0</text>
</g>
<!-- @strudel.cycles/transpiler@0.6.0&#45;&gt;escodegen@2.0.0 -->

<!-- estree&#45;walker@3.0.3 -->
<g id="node20" class="node module-estree_walker collapsed maintainer-rich_harris license-mit" data-module="estree-walker@3.0.3">
<title>estree-walker@3.0.3</title>
<path fill="none" stroke="black" d="M351.26,-56.3C351.26,-56.3 266.46,-56.3 266.46,-56.3 263.22,-56.3 259.99,-53.07 259.99,-49.83 259.99,-49.83 259.99,-43.37 259.99,-43.37 259.99,-40.13 263.22,-36.9 266.46,-36.9 266.46,-36.9 351.26,-36.9 351.26,-36.9 354.49,-36.9 357.73,-40.13 357.73,-43.37 357.73,-43.37 357.73,-49.83 357.73,-49.83 357.73,-53.07 354.49,-56.3 351.26,-56.3"></path>
<text text-anchor="middle" x="308.86" y="-43.3" font-family="Roboto Condensed, sans-serif" font-size="11.00">estree-walker@3.0.3</text>
</g>
<!-- @strudel.cycles/transpiler@0.6.0&#45;&gt;estree&#45;walker@3.0.3 -->

<!-- @strudel.cycles/webaudio@0.6.1&#45;&gt;@strudel.cycles/core@0.6.8 -->

<!-- @strudel.cycles/xen@0.6.0 -->
<g id="node13" class="node module-_strudel_cycles_xen maintainer-yaxupaxo maintainer-felixroos license-agpl_3_0_or_later" data-module="@strudel.cycles/xen@0.6.0">
<title>@strudel.cycles/xen@0.6.0</title>
<path fill="none" stroke="black" d="M173.25,-185.3C173.25,-185.3 58.44,-185.3 58.44,-185.3 55.21,-185.3 51.98,-182.07 51.98,-178.83 51.98,-178.83 51.98,-172.37 51.98,-172.37 51.98,-169.13 55.21,-165.9 58.44,-165.9 58.44,-165.9 173.25,-165.9 173.25,-165.9 176.48,-165.9 179.72,-169.13 179.72,-172.37 179.72,-172.37 179.72,-178.83 179.72,-178.83 179.72,-182.07 176.48,-185.3 173.25,-185.3"></path>
<text text-anchor="middle" x="115.85" y="-172.3" font-family="Roboto Condensed, sans-serif" font-size="11.00">@strudel.cycles/xen@0.6.0</text>
</g>
<!-- @strudel.cycles/xen@0.6.0&#45;&gt;@strudel.cycles/core@0.6.8 -->

<!-- @strudel.cycles/webaudio@0.6.0&#45;&gt;@strudel.cycles/core@0.6.8 -->

<!-- chord&#45;voicings@0.0.1&#45;&gt;@tonaljs/tonal@4.10.0 -->
<g id="edge27" class="edge">
<title>chord-voicings@0.0.1-&gt;@tonaljs/tonal@4.10.0</title>
<path fill="none" stroke="black" d="M361.22,-440.51C377.14,-442.34 394.88,-444.38 411.53,-446.29"></path>
<polygon fill="black" stroke="black" points="411.39,-449.8 421.73,-447.47 412.19,-442.85 411.39,-449.8"></polygon>
</g>
<!-- sfumato@0.1.2&#45;&gt;soundfont2@0.4.0 -->
<g id="edge28" class="edge">
<title>sfumato@0.1.2-&gt;soundfont2@0.4.0</title>
<path fill="none" stroke="black" d="M345.7,-319.48C368.06,-316.91 397.22,-313.55 422.19,-310.68"></path>
<polygon fill="black" stroke="black" points="422.72,-314.14 432.25,-309.52 421.92,-307.19 422.72,-314.14"></polygon>
</g>
<g id="edge1" class="edge">
<title>@strudel.cycles/core@0.6.8-&gt;fraction.js@4.2.0</title>
<path fill="none" stroke="black" d="M181.25,-21.53C206.16,-19.18 234.23,-16.54 257.6,-14.34"></path>
<polygon fill="black" stroke="black" points="258.02,-17.81 267.64,-13.39 257.36,-10.84 258.02,-17.81"></polygon>
</g><g id="edge3" class="edge">
<title>@strudel.cycles/csound@0.6.2-&gt;@strudel.cycles/core@0.6.8</title>
<path fill="none" stroke="black" d="M44.23,-280.41C33.55,-276.09 24.08,-269.5 17.96,-259.6 -5.99,-220.85 -5.99,-93.35 17.96,-54.6 23.42,-45.77 31.54,-39.58 40.82,-35.27"></path>
<polygon fill="black" stroke="black" points="42.35,-38.43 50.42,-31.56 39.83,-31.9 42.35,-38.43"></polygon>
</g><g id="edge4" class="edge">
<title>@strudel.cycles/csound@0.6.2-&gt;@strudel.cycles/webaudio@0.6.1</title>
<path fill="none" stroke="black" d="M115.85,-276.84C115.85,-274.39 115.85,-271.94 115.85,-269.49"></path>
<polygon fill="black" stroke="black" points="119.35,-269.43 115.85,-259.43 112.35,-269.43 119.35,-269.43"></polygon>
</g><g id="edge6" class="edge">
<title>@strudel.cycles/midi@0.6.0-&gt;@strudel.cycles/core@0.6.8</title>
<path fill="none" stroke="black" d="M50.17,-356.56C37.1,-352.37 25.19,-345.3 17.96,-333.6 1.66,-307.23 1.66,-80.97 17.96,-54.6 23.42,-45.77 31.54,-39.58 40.82,-35.27"></path>
<polygon fill="black" stroke="black" points="42.35,-38.43 50.42,-31.56 39.83,-31.9 42.35,-38.43"></polygon>
</g><g id="edge7" class="edge">
<title>@strudel.cycles/midi@0.6.0-&gt;@strudel.cycles/webaudio@0.6.0</title>
<path fill="none" stroke="black" d="M181.51,-360.6C194.37,-360.6 208.05,-360.6 221.49,-360.6"></path>
<polygon fill="black" stroke="black" points="221.71,-364.1 231.7,-360.6 221.7,-357.1 221.71,-364.1"></polygon>
</g><g id="edge5" class="edge">
<title>@strudel.cycles/midi@0.6.0-&gt;webmidi@3.1.4</title>
<path fill="none" stroke="black" d="M166.53,-370.22C195.48,-375.83 231.78,-382.86 260.34,-388.4"></path>
<polygon fill="black" stroke="black" points="260.01,-391.9 270.49,-390.36 261.34,-385.02 260.01,-391.9"></polygon>
</g><g id="edge8" class="edge">
<title>@strudel.cycles/mini@0.6.0-&gt;@strudel.cycles/core@0.6.8</title>
<path fill="none" stroke="black" d="M50.17,-97.56C37.1,-93.37 25.19,-86.3 17.96,-74.6 7.78,-58.12 21.54,-47.3 41.67,-40.25"></path>
<polygon fill="black" stroke="black" points="42.78,-43.57 51.3,-37.27 40.71,-36.88 42.78,-43.57"></polygon>
</g><g id="edge10" class="edge">
<title>@strudel.cycles/osc@0.6.0-&gt;@strudel.cycles/core@0.6.8</title>
<path fill="none" stroke="black" d="M52.7,-209.33C38.65,-205.26 25.65,-198.05 17.96,-185.6 2.66,-160.84 2.66,-79.36 17.96,-54.6 23.42,-45.77 31.54,-39.58 40.82,-35.27"></path>
<polygon fill="black" stroke="black" points="42.35,-38.43 50.42,-31.56 39.83,-31.9 42.35,-38.43"></polygon>
</g><g id="edge9" class="edge">
<title>@strudel.cycles/osc@0.6.0-&gt;osc-js@2.4.0</title>
<path fill="none" stroke="black" d="M179.13,-211.95C207.93,-211.65 241.33,-211.3 266.9,-211.03"></path>
<polygon fill="black" stroke="black" points="267.02,-214.53 276.99,-210.92 266.95,-207.53 267.02,-214.53"></polygon>
</g><g id="edge11" class="edge">
<title>@strudel.cycles/serial@0.6.0-&gt;@strudel.cycles/core@0.6.8</title>
<path fill="none" stroke="black" d="M48.17,-133.89C35.89,-129.63 24.82,-122.7 17.96,-111.6 4.64,-90.05 4.64,-76.15 17.96,-54.6 23.42,-45.77 31.54,-39.58 40.82,-35.27"></path>
<polygon fill="black" stroke="black" points="42.35,-38.43 50.42,-31.56 39.83,-31.9 42.35,-38.43"></polygon>
</g><g id="edge14" class="edge">
<title>@strudel.cycles/soundfonts@0.6.0-&gt;@strudel.cycles/core@0.6.8</title>
<path fill="none" stroke="black" d="M36.71,-313.85C29.15,-309.7 22.6,-304.1 17.96,-296.6 3.83,-273.73 3.83,-77.47 17.96,-54.6 23.42,-45.77 31.54,-39.58 40.82,-35.27"></path>
<polygon fill="black" stroke="black" points="42.35,-38.43 50.42,-31.56 39.83,-31.9 42.35,-38.43"></polygon>
</g><g id="edge15" class="edge">
<title>@strudel.cycles/soundfonts@0.6.0-&gt;@strudel.cycles/webaudio@0.6.0</title>
<path fill="none" stroke="black" d="M166.53,-333.22C191.53,-338.07 222.01,-343.97 248.26,-349.05"></path>
<polygon fill="black" stroke="black" points="247.6,-352.49 258.09,-350.96 248.94,-345.62 247.6,-352.49"></polygon>
</g><g id="edge12" class="edge">
<title>@strudel.cycles/soundfonts@0.6.0-&gt;sfumato@0.1.2</title>
<path fill="none" stroke="black" d="M195.64,-323.6C218.22,-323.6 242.08,-323.6 261.97,-323.6"></path>
<polygon fill="black" stroke="black" points="261.98,-327.1 271.98,-323.6 261.98,-320.1 261.98,-327.1"></polygon>
</g><g id="edge13" class="edge">
<title>@strudel.cycles/soundfonts@0.6.0-&gt;soundfont2@0.4.0</title>
<path fill="none" stroke="black" d="M164.14,-313.99C184.8,-310.25 209.37,-306.44 231.73,-304.6 297.18,-299.22 372.86,-300.38 422.21,-302.11"></path>
<polygon fill="black" stroke="black" points="422.21,-305.61 432.33,-302.49 422.47,-298.62 422.21,-305.61"></polygon>
</g><g id="edge19" class="edge">
<title>@strudel.cycles/tonal@0.6.0-&gt;@strudel.cycles/core@0.6.8</title>
<path fill="none" stroke="black" d="M68.74,-405.99C49.45,-399.45 29.07,-388.58 17.96,-370.6 -0.5,-340.73 -0.5,-84.47 17.96,-54.6 23.42,-45.77 31.54,-39.58 40.82,-35.27"></path>
<polygon fill="black" stroke="black" points="42.35,-38.43 50.42,-31.56 39.83,-31.9 42.35,-38.43"></polygon>
</g><g id="edge16" class="edge">
<title>@strudel.cycles/tonal@0.6.0-&gt;@tonaljs/tonal@4.10.0</title>
<path fill="none" stroke="black" d="M168.82,-425.25C177.92,-427.57 187.2,-430.33 195.73,-433.6 212.82,-440.15 214.01,-449.01 231.73,-453.6 291.41,-469.07 362.13,-466.9 411.9,-462.17"></path>
<polygon fill="black" stroke="black" points="412.28,-465.65 421.88,-461.17 411.58,-458.69 412.28,-465.65"></polygon>
</g><g id="edge17" class="edge">
<title>@strudel.cycles/tonal@0.6.0-&gt;chord-voicings@0.0.1</title>
<path fill="none" stroke="black" d="M182.85,-422.17C203.51,-424.22 226.22,-426.48 246.55,-428.5"></path>
<polygon fill="black" stroke="black" points="246.33,-432 256.62,-429.5 247.02,-425.03 246.33,-432"></polygon>
</g><g id="edge18" class="edge">
<title>@strudel.cycles/tonal@0.6.0-&gt;webmidi@3.1.4</title>
<path fill="none" stroke="black" d="M182.85,-409.38C208.4,-406.97 237.07,-404.27 260.51,-402.06"></path>
<polygon fill="black" stroke="black" points="260.91,-405.54 270.54,-401.12 260.26,-398.57 260.91,-405.54"></polygon>
</g><g id="edge23" class="edge">
<title>@strudel.cycles/transpiler@0.6.0-&gt;@strudel.cycles/core@0.6.8</title>
<path fill="none" stroke="black" d="M115.85,-54.84C115.85,-52.39 115.85,-49.94 115.85,-47.49"></path>
<polygon fill="black" stroke="black" points="119.35,-47.43 115.85,-37.43 112.35,-47.43 119.35,-47.43"></polygon>
</g><g id="edge20" class="edge">
<title>@strudel.cycles/transpiler@0.6.0-&gt;acorn@8.8.2</title>
<path fill="none" stroke="black" d="M168.82,-74.25C177.92,-76.57 187.2,-79.33 195.73,-82.6 212.82,-89.15 214.66,-95.99 231.73,-102.6 243.09,-107 255.84,-110.53 267.61,-113.25"></path>
<polygon fill="black" stroke="black" points="267.12,-116.73 277.64,-115.44 268.61,-109.89 267.12,-116.73"></polygon>
</g><g id="edge21" class="edge">
<title>@strudel.cycles/transpiler@0.6.0-&gt;escodegen@2.0.0</title>
<path fill="none" stroke="black" d="M192.61,-72.14C214.17,-74.28 237.12,-76.56 256.83,-78.52"></path>
<polygon fill="black" stroke="black" points="256.51,-82.01 266.81,-79.52 257.21,-75.04 256.51,-82.01"></polygon>
</g><g id="edge22" class="edge">
<title>@strudel.cycles/transpiler@0.6.0-&gt;estree-walker@3.0.3</title>
<path fill="none" stroke="black" d="M192.61,-57.46C211.68,-55.66 231.85,-53.76 249.89,-52.06"></path>
<polygon fill="black" stroke="black" points="250.33,-55.54 259.96,-51.11 249.68,-48.57 250.33,-55.54"></polygon>
</g><g id="edge24" class="edge">
<title>@strudel.cycles/webaudio@0.6.1-&gt;@strudel.cycles/core@0.6.8</title>
<path fill="none" stroke="black" d="M38.54,-240.82C30.22,-236.58 22.97,-230.7 17.96,-222.6 -1.66,-190.84 -1.66,-86.36 17.96,-54.6 23.42,-45.77 31.54,-39.58 40.82,-35.27"></path>
<polygon fill="black" stroke="black" points="42.35,-38.43 50.42,-31.56 39.83,-31.9 42.35,-38.43"></polygon>
</g><g id="edge25" class="edge">
<title>@strudel.cycles/xen@0.6.0-&gt;@strudel.cycles/core@0.6.8</title>
<path fill="none" stroke="black" d="M51.94,-172.1C38.18,-168 25.52,-160.82 17.96,-148.6 -4,-113.06 -4,-90.14 17.96,-54.6 23.42,-45.77 31.54,-39.58 40.82,-35.27"></path>
<polygon fill="black" stroke="black" points="42.35,-38.43 50.42,-31.56 39.83,-31.9 42.35,-38.43"></polygon>
</g><g id="edge26" class="edge">
<title>@strudel.cycles/webaudio@0.6.0-&gt;@strudel.cycles/core@0.6.8</title>
<path fill="none" stroke="black" d="M241.66,-350.81C237.99,-348.55 234.63,-345.84 231.73,-342.6 143.1,-243.48 284.75,-144.37 195.73,-45.6 193.96,-43.64 192.03,-41.87 189.96,-40.27"></path>
<polygon fill="black" stroke="black" points="191.74,-37.25 181.4,-34.93 188.03,-43.19 191.74,-37.25"></polygon>
</g><g id="edge2" class="edge">
<title>@strudel.cycles/csound@0.6.2-&gt;@csound/browser@6.18.5</title>
<path fill="none" stroke="black" d="M164.06,-276.96C190.24,-271.62 222.97,-264.93 250.6,-259.29"></path>
<polygon fill="black" stroke="black" points="251.43,-262.69 260.52,-257.26 250.02,-255.84 251.43,-262.69"></polygon>
</g></g>
</svg>