<svg width="250" height="256" xmlns="http://www.w3.org/2000/svg">
 <defs>
  <linearGradient x1="0.14647" y1="0.14645" x2="0.85355" y2="0.85354" spreadMethod="pad" id="linearGradient56">
   <stop stop-color="#1a2243" offset="0" id="stop50"/>
   <stop stop-color="#46c1b9" offset="0.5" id="stop52"/>
   <stop stop-color="#c5115b" offset="1" id="stop54"/>
  </linearGradient>
  <linearGradient x1="-0.00001" y1="0.5" x2="1.00001" y2="0.5" spreadMethod="pad" id="linearGradient100">
   <stop stop-color="#1a2243" offset="0" id="stop96"/>
   <stop stop-color="#46c1b9" offset="1" id="stop98"/>
  </linearGradient>
  <linearGradient x1="0.00005" y1="0.50018" x2="1.00013" y2="0.50018" spreadMethod="pad" id="linearGradient164">
   <stop stop-color="#46c1b9" offset="0" id="stop160"/>
   <stop stop-color="#c5115b" offset="1" id="stop162"/>
  </linearGradient>
 </defs>
 <g>
  <title>Layer 1</title>
  <g id="g10" transform="matrix(1.3333333,0,0,-1.3333333,0,249)">
   <g id="g4682" transform="matrix(1.0102733,0,0,1.0102733,5.9790415,5.979062)">
    <g id="g112">
     <path fill="url(#linearGradient164)" id="path166" d="m414.199,49.70201l0,0.296l-0.097,0l0,0.5l-0.102,0l0,0.5l-0.102,0l0,0.5l-0.097,0l0,0.5l-0.102,0l0,0.602l-0.097,0l0,0.102l0.097,0l0,0.097l0.301,0l0,0.102l0.301,0l0,0.097l0.199,0l0,0.102l0.301,0l0,0.102l0.199,0l0,0.097l0.301,0l0,0.102l0.199,0l0,0.097l0.199,0l0,0.102l0.199,0l0,0.102l0.204,0l0,0.097l0.199,0l0,0.102l0.199,0l0,0.097l0.199,0l0,0.102l0.102,0l0,0.102l0.199,0l0,0.097l0.199,0l0,0.102l0.199,0l0,0.097l0.102,0l0,0.102l0.199,0l0,0.102l0.102,0l0,0.097l0.199,0l0,0.102l0.102,0l0,0.097l0.097,0l0,0.102l0.199,0l0,0.102l0.102,0l0,0.097l0.199,0l0,0.102l0.102,0l0,0.097l0.097,0l0,0.102l0.102,0l0,0.102l0.102,0l0,0.097l0.097,0l0,0.102l0.102,0l0,0.097l0.199,0l0,0.102l0.102,0l0,0.102l0.097,0l0,0.097l0.102,0l0,0.102l0.097,0l0,0.097l0.102,0l0,0.102l0.102,0l0,0.102l0.097,0l0,0.097l0.102,0l0,0.199l0.097,0l0,0.102l0.102,0l0,0.102l0.102,0l0,0.097l0.097,0l0,0.102l0.102,0l0,0.199l0.097,0l0,0.102l0.102,0l0,0.097l0.102,0l0,0.102l0.097,0l0,0.199l0.102,0l0,0.102l0.097,0l0,0.199l0.102,0l0,0.097l0.102,0l0,0.204l0.097,0l0,0.097l0.102,0l0,0.199l0.097,0l0,0.102l0.102,0l0,0.199l0.102,0l0,0.102l0.097,0l0,0.199l0.102,0l0,0.199l0.097,0l0,0.199l0.102,0l0,0.204l0.102,0l0,0.199l0.097,0l0,0.199l0.102,0l0,0.199l0.097,0l0,0.199l0.102,0l0,0.204l0.102,0l0,0.199l0.097,0l0,0.301l0.102,0l0,0.199l0.097,0l0,0.199l0.102,0l0,0.301l0.102,0l0,0.199l0.097,0l0,0.199l0.102,0l0,0.301l0.097,0l0,0.199l0.102,0l0,0.199l0.102,0l0,0.204l0.097,0l0,0.296l0.102,0l0,0.204l0.097,0l0,0.199l-1.699,0l0,0.097l-0.199,0l0,0.102l-0.199,0l0,0.102l-0.102,0l0,0.097l-0.097,0l0,0.102l-0.204,0l0,0.097l-0.097,0l0,0.204l-0.102,0l0,0.199l-0.097,0l0,0.199l-0.102,0l0,0.301l-0.102,0l0,0.199l-0.097,0l0,0.301l-0.102,0l0,0.199l-0.097,0l0,0.301l-0.102,0l0,0.199l-0.102,0l0,0.301l-0.097,0l0,0.199l-0.102,0l0,0.301l-0.097,0l0,0.199l-0.102,0l0,0.301l-0.102,0l0,0.301l-0.097,0l0,0.199l-0.102,0l0,0.301l-0.097,0l0,0.199l-0.102,0l0,0.301l-0.102,0l0,0.199l-0.097,0l0,0.301l-0.102,0l0,0.199l-0.097,0l0,0.301l-0.102,0l0,0.199l-0.102,0l0,0.301l-0.097,0l0,0.199l-0.102,0l0,0.301l-0.097,0l0,0.296l-0.102,0l0,0.204l-0.102,0l0,0.296l-0.097,0l0,0.204l-0.102,0l0,0.296l-0.097,0l0,0.204l-0.102,0l0,0.296l-0.102,0l0,0.204l-0.097,0l0,0.296l-0.102,0l0,0.204l-0.097,0l0,0.296l-0.102,0l0,0.204l-0.102,0l0,0.296l-0.097,0l0,0.301l-0.102,0l0,0.199l-0.097,0l0,0.301l-0.102,0l0,0.199l-0.102,0l0,0.301l-0.097,0l0,0.199l-0.102,0l0,0.301l-0.097,0l0,0.199l-0.102,0l0,0.301l-0.102,0l0,0.199l-0.097,0l0,0.301l-0.102,0l0,0.199l-0.097,0l0,0.301l-0.102,0l0,0.301l-0.102,0l0,0.199l-0.097,0l0,0.301l-0.102,0l0,0.199l-0.097,0l0,0.301l-0.102,0l0,0.199l-0.102,0l0,0.301l-0.097,0l0,0.199l-0.102,0l0,0.301l-0.097,0l0,0.199l-0.102,0l0,0.301l-0.102,0l0,0.199l-0.097,0l0,0.301l-0.102,0l0,0.301l-0.097,0l0,0.199l-0.102,0l0,0.301l-0.102,0l0,0.199l-0.097,0l0,0.301l-0.102,0l0,0.199l-0.097,0l0,0.301l-0.102,0l0,0.199l-0.102,0l0,0.301l-0.097,0l0,0.199l-0.102,0l0,0.301l-0.097,0l0,0.199l-0.102,0l0,0.301l-0.102,0l0,0.301l-0.097,0l0,0.199l-0.102,0l0,0.301l-0.097,0l0,0.199l-0.102,0l0,0.301l-0.102,0l0,0.199l-0.097,0l0,0.301l-0.102,0l0,0.199l-0.097,0l0,0.301l-0.102,0l0,0.199l-0.102,0l0,0.301l-0.097,0l0,0.199l-0.102,0l0,0.301l-0.097,0l0,0.296l-0.102,0l0,0.204l-0.102,0l0,0.296l-0.097,0l0,0.204l-0.102,0l0,0.296l-0.097,0l0,0.204l-0.102,0l0,0.296l-0.102,0l0,0.204l-0.097,0l0,0.296l-0.102,0l0,0.204l-0.097,0l0,0.296l-0.102,0l0,0.204l-0.102,0l0,0.296l-0.097,0l0,0.301l-0.102,0l0,0.199l-0.097,0l0,0.301l-0.102,0l0,0.199l-0.102,0l0,0.301l-0.097,0l0,0.199l-0.102,0l0,0.301l-0.097,0l0,0.199l-0.102,0l0,0.301l-0.102,0l0,0.199l-0.097,0l0,0.301l-0.102,0l0,0.199l-0.097,0l0,0.301l-0.102,0l0,0.301l-0.102,0l0,0.199l-0.097,0l0,0.301l-0.102,0l0,0.199l-0.097,0l0,0.301l-0.102,0l0,0.199l-0.102,0l0,0.301l-0.097,0l0,0.199l-0.102,0l0,0.301l-0.097,0l0,0.199l-0.102,0l0,0.301l-0.102,0l0,0.199l-0.097,0l0,0.301l-0.102,0l0,0.301l-0.097,0l0,0.199l-0.102,0l0,0.102l5,0l0,-0.204l0.102,0l0,-0.296l0.097,0l0,-0.301l0.102,0l0,-0.199l0.097,0l0,-0.301l0.102,0l0,-0.199l0.102,0l0,-0.301l0.097,0l0,-0.301l0.102,0l0,-0.199l0.097,0l0,-0.301l0.102,0l0,-0.301l0.102,0l0,-0.199l0.097,0l0,-0.301l0.102,0l0,-0.301l0.097,0l0,-0.199l0.102,0l0,-0.301l0.102,0l0,-0.296l0.097,0l0,-0.204l0.102,0l0,-0.296l0.097,0l0,-0.204l0.102,0l0,-0.296l0.102,0l0,-0.301l0.097,0l0,-0.199l0.102,0l0,-0.301l0.097,0l0,-0.301l0.102,0l0,-0.199l0.102,0l0,-0.301l0.097,0l0,-0.301l0.102,0l0,-0.199l0.097,0l0,-0.301l0.102,0l0,-0.301l0.102,0l0,-0.199l0.097,0l0,-0.301l0.102,0l0,-0.199l0.097,0l0,-0.301l0.102,0l0,-0.296l0.102,0l0,-0.204l0.097,0l0,-0.296l0.102,0l0,-0.301l0.097,0l0,-0.199l0.102,0l0,-0.301l0.102,0l0,-0.301l0.097,0l0,-0.199l0.102,0l0,-0.301l0.097,0l0,-0.301l0.102,0l0,-0.199l0.102,0l0,-0.301l0.097,0l0,-0.199l0.102,0l0,-0.301l0.097,0l0,-0.301l0.102,0l0,-0.199l0.102,0l0,-0.301l0.097,0l0,-0.296l0.102,0l0,-0.204l0.097,0l0,-0.296l0.102,0l0,-0.301l0.102,0l0,-0.199l0.097,0l0,-0.301l0.102,0l0,-0.301l0.097,0l0,-0.199l0.102,0l0,-0.301l0.102,0l0,-0.199l0.097,0l0,-0.301l0.102,0l0,-0.301l0.097,0l0,-0.199l0.102,0l0,-0.301l0.102,0l0,-0.301l0.097,0l0,-0.199l0.102,0l0,-0.301l0.097,0l0,-0.296l0.102,0l0,-0.204l0.102,0l0,-0.296l0.097,0l0,-0.301l0.102,0l0,-0.199l0.097,0l0,-0.301l0.102,0l0,-0.199l0.102,0l0,-0.301l0.097,0l0,-0.301l0.102,0l0,-0.199l0.097,0l0,-0.301l0.102,0l0,-0.301l0.102,0l0,-0.199l0.097,0l0,-0.301l0.102,0l0,-0.301l0.097,0l0,-0.199l0.102,0l0,-0.301l0.102,0l0,-0.296l0.097,0l0,-0.204l0.102,0l0,-0.296l0.097,0l0,-0.204l0.102,0l0,-0.296l0.102,0l0,-0.301l0.097,0l0,-0.199l0.102,0l0,-0.301l0.097,0l0,-0.301l0.102,0l0,-0.199l0.102,0l0,-0.301l0.097,0l0,-0.301l0.102,0l0,-0.199l0.097,0l0,-0.301l0.102,0l0,-0.301l0.102,0l0,-0.199l0.097,0l0,-0.301l0.102,0l0,-0.199l0.097,0l0,-0.301l0.102,0l0,-0.199l0.102,0l0,-0.301l0.097,0l0,-0.296l0.102,0l0,-0.204l0.097,0l0,-0.296l0.102,0l0,-0.301l0.102,0l0,-0.301l0.097,0l0,-0.301l0.102,0l0,-0.398l0.097,0l0,-0.301l0.102,0l0,-0.102l0.898,0l0,0.204l0.102,0l0,0.199l0.102,0l0,0.301l0.097,0l0,0.296l0.102,0l0,0.301l0.097,0l0,0.199l0.102,0l0,0.301l0.102,0l0,0.301l0.097,0l0,0.199l0.102,0l0,0.301l0.097,0l0,0.301l0.102,0l0,0.301l0.102,0l0,0.199l0.097,0l0,0.301l0.102,0l0,0.296l0.097,0l0,0.204l0.102,0l0,0.296l0.102,0l0,0.301l0.097,0l0,0.199l0.102,0l0,0.301l0.097,0l0,0.301l0.102,0l0,0.199l0.102,0l0,0.301l0.097,0l0,0.301l0.102,0l0,0.199l0.097,0l0,0.301l0.102,0l0,0.301l0.102,0l0,0.199l0.097,0l0,0.301l0.102,0l0,0.199l0.097,0l0,0.301l0.102,0l0,0.296l0.102,0l0,0.204l0.097,0l0,0.296l0.102,0l0,0.301l0.097,0l0,0.199l0.102,0l0,0.301l0.102,0l0,0.301l0.097,0l0,0.199l0.102,0l0,0.301l0.097,0l0,0.301l0.102,0l0,0.199l0.102,0l0,0.301l0.097,0l0,0.301l0.102,0l0,0.199l0.097,0l0,0.301l0.102,0l0,0.296l0.102,0l0,0.204l0.097,0l0,0.296l0.102,0l0,0.301l0.097,0l0,0.199l0.102,0l0,0.301l0.102,0l0,0.301l0.097,0l0,0.199l0.102,0l0,0.301l0.097,0l0,0.301l0.102,0l0,0.199l0.102,0l0,0.301l0.097,0l0,0.199l0.102,0l0,0.301l0.097,0l0,0.301l0.102,0l0,0.199l0.102,0l0,0.301l0.097,0l0,0.296l0.102,0l0,0.204l0.097,0l0,0.296l0.102,0l0,0.301l0.102,0l0,0.199l0.097,0l0,0.301l0.102,0l0,0.301l0.097,0l0,0.199l0.102,0l0,0.301l0.102,0l0,0.301l0.097,0l0,0.199l0.102,0l0,0.301l0.097,0l0,0.301l0.102,0l0,0.199l0.102,0l0,0.301l0.097,0l0,0.296l0.102,0l0,0.204l0.097,0l0,0.296l0.102,0l0,0.301l0.102,0l0,0.199l0.097,0l0,0.301l0.102,0l0,0.301l0.097,0l0,0.199l0.102,0l0,0.301l0.102,0l0,0.199l0.097,0l0,0.301l0.102,0l0,0.301l0.097,0l0,0.199l0.102,0l0,0.301l0.102,0l0,0.301l0.097,0l0,0.199l0.102,0l0,0.301l0.097,0l0,0.296l0.102,0l0,0.204l0.102,0l0,0.296l0.097,0l0,0.301l0.102,0l0,0.199l0.097,0l0,0.301l0.102,0l0,0.301l0.102,0l0,0.199l0.097,0l0,0.301l0.102,0l0,0.301l0.097,0l0,0.199l0.102,0l0,0.301l0.102,0l0,0.301l0.097,0l0,0.199l0.102,0l0,0.301l0.097,0l0,0.296l0.102,0l0,0.204l0.102,0l0,0.296l0.097,0l0,0.301l0.102,0l0,0.199l0.097,0l0,0.204l4.903,0l0,-0.301l-0.102,0l0,-0.301l-0.097,0l0,-0.199l-0.102,0l0,-0.301l-0.102,0l0,-0.199l-0.097,0l0,-0.301l-0.102,0l0,-0.199l-0.097,0l0,-0.301l-0.102,0l0,-0.199l-0.102,0l0,-0.301l-0.097,0l0,-0.199l-0.102,0l0,-0.301l-0.097,0l0,-0.301l-0.102,0l0,-0.199l-0.102,0l0,-0.301l-0.097,0l0,-0.199l-0.102,0l0,-0.301l-0.097,0l0,-0.199l-0.102,0l0,-0.301l-0.102,0l0,-0.199l-0.097,0l0,-0.301l-0.102,0l0,-0.199l-0.097,0l0,-0.301l-0.102,0l0,-0.199l-0.102,0l0,-0.301l-0.097,0l0,-0.301l-0.102,0l0,-0.199l-0.097,0l0,-0.301l-0.102,0l0,-0.199l-0.102,0l0,-0.301l-0.097,0l0,-0.199l-0.102,0l0,-0.301l-0.097,0l0,-0.199l-0.102,0l0,-0.301l-0.102,0l0,-0.199l-0.097,0l0,-0.301l-0.102,0l0,-0.199l-0.097,0l0,-0.301l-0.102,0l0,-0.296l-0.102,0l0,-0.204l-0.097,0l0,-0.296l-0.102,0l0,-0.204l-0.097,0l0,-0.296l-0.102,0l0,-0.204l-0.102,0l0,-0.296l-0.097,0l0,-0.204l-0.102,0l0,-0.296l-0.097,0l0,-0.204l-0.102,0l0,-0.296l-0.102,0l0,-0.204l-0.097,0l0,-0.296l-0.102,0l0,-0.301l-0.097,0l0,-0.199l-0.102,0l0,-0.301l-0.102,0l0,-0.199l-0.097,0l0,-0.301l-0.102,0l0,-0.199l-0.097,0l0,-0.301l-0.102,0l0,-0.199l-0.102,0l0,-0.301l-0.097,0l0,-0.199l-0.102,0l0,-0.301l-0.097,0l0,-0.199l-0.102,0l0,-0.301l-0.102,0l0,-0.301l-0.097,0l0,-0.199l-0.102,0l0,-0.301l-0.097,0l0,-0.199l-0.102,0l0,-0.301l-0.102,0l0,-0.199l-0.097,0l0,-0.301l-0.102,0l0,-0.199l-0.097,0l0,-0.301l-0.102,0l0,-0.199l-0.102,0l0,-0.301l-0.097,0l0,-0.301l-0.102,0l0,-0.199l-0.097,0l0,-0.301l-0.102,0l0,-0.199l-0.102,0l0,-0.301l-0.097,0l0,-0.199l-0.102,0l0,-0.301l-0.097,0l0,-0.199l-0.102,0l0,-0.301l-0.102,0l0,-0.199l-0.097,0l0,-0.301l-0.102,0l0,-0.199l-0.097,0l0,-0.301l-0.102,0l0,-0.301l-0.102,0l0,-0.199l-0.097,0l0,-0.301l-0.102,0l0,-0.199l-0.097,0l0,-0.301l-0.102,0l0,-0.199l-0.102,0l0,-0.301l-0.097,0l0,-0.199l-0.102,0l0,-0.301l-0.097,0l0,-0.199l-0.102,0l0,-0.301l-0.102,0l0,-0.199l-0.097,0l0,-0.301l-0.102,0l0,-0.296l-0.097,0l0,-0.204l-0.102,0l0,-0.296l-0.102,0l0,-0.204l-0.097,0l0,-0.296l-0.102,0l0,-0.204l-0.097,0l0,-0.296l-0.102,0l0,-0.204l-0.102,0l0,-0.296l-0.097,0l0,-0.204l-0.102,0l0,-0.296l-0.097,0l0,-0.204l-0.102,0l0,-0.296l-0.102,0l0,-0.301l-0.097,0l0,-0.199l-0.102,0l0,-0.301l-0.097,0l0,-0.199l-0.102,0l0,-0.301l-0.102,0l0,-0.199l-0.097,0l0,-0.301l-0.102,0l0,-0.199l-0.097,0l0,-0.301l-0.102,0l0,-0.199l-0.102,0l0,-0.301l-0.097,0l0,-0.199l-0.102,0l0,-0.301l-0.097,0l0,-0.301l-0.102,0l0,-0.199l-0.102,0l0,-0.301l-0.097,0l0,-0.199l-0.102,0l0,-0.301l-0.097,0l0,-0.199l-0.102,0l0,-0.301l-0.102,0l0,-0.199l-0.097,0l0,-0.301l-0.102,0l0,-0.199l-0.097,0l0,-0.301l-0.102,0l0,-0.199l-0.102,0l0,-0.301l-0.097,0l0,-0.301l-0.102,0l0,-0.199l-0.097,0l0,-0.301l-0.102,0l0,-0.199l-0.102,0l0,-0.301l-0.097,0l0,-0.199l-0.102,0l0,-0.301l-0.097,0l0,-0.199l-0.102,0l0,-0.199l-0.102,0l0,-0.301l-0.097,0l0,-0.199l-0.102,0l0,-0.199l-0.097,0l0,-0.204l-0.102,0l0,-0.296l-0.102,0l0,-0.204l-0.097,0l0,-0.199l-0.102,0l0,-0.199l-0.097,0l0,-0.199l-0.102,0l0,-0.199l-0.102,0l0,-0.204l-0.097,0l0,-0.199l-0.102,0l0,-0.097l-0.097,0l0,-0.204l-0.102,0l0,-0.199l-0.102,0l0,-0.199l-0.097,0l0,-0.199l-0.102,0l0,-0.102l-0.097,0l0,-0.199l-0.102,0l0,-0.102l-0.102,0l0,-0.199l-0.097,0l0,-0.199l-0.102,0l0,-0.102l-0.097,0l0,-0.199l-0.102,0l0,-0.097l-0.102,0l0,-0.204l-0.097,0l0,-0.097l-0.102,0l0,-0.102l-0.097,0l0,-0.199l-0.102,0l0,-0.102l-0.102,0l0,-0.097l-0.097,0l0,-0.199l-0.102,0l0,-0.102l-0.097,0l0,-0.102l-0.102,0l0,-0.199l-0.102,0l0,-0.097l-0.097,0l0,-0.102l-0.102,0l0,-0.102l-0.097,0l0,-0.097l-0.102,0l0,-0.102l-0.102,0l0,-0.097l-0.097,0l0,-0.102l-0.102,0l0,-0.199l-0.097,0l0,-0.102l-0.204,0l0,-0.097l-0.097,0l0,-0.102l-0.102,0l0,-0.102l-0.097,0l0,-0.097l-0.102,0l0,-0.102l-0.102,0l0,-0.097l-0.097,0l0,-0.102l-0.102,0l0,-0.102l-0.097,0l0,-0.097l-0.102,0l0,-0.102l-0.199,0l0,-0.097l-0.102,0l0,-0.102l-0.097,0l0,-0.102l-0.102,0l0,-0.097l-0.199,0l0,-0.102l-0.102,0l0,-0.097l-0.199,0l0,-0.102l-0.102,0l0,-0.102l-0.199,0l0,-0.097l-0.097,0l0,-0.102l-0.204,0l0,-0.097l-0.097,0l0,-0.102l-0.199,0l0,-0.102l-0.204,0l0,-0.097l-0.199,0l0,-0.102l-0.097,0l0,-0.097l-0.204,0l0,-0.102l-0.199,0l0,-0.102l-0.301,0l0,-0.097l-0.199,0l0,-0.102l-0.199,0l0,-0.097l-0.199,0l0,-0.102l-0.301,0l0,-0.102l-0.301,0l0,-0.097l-0.301,0l0,-0.102l-0.296,0l0,-0.097l-0.403,0l0,-0.102l-0.398,0l0,-0.102l-0.5,0l0,-0.097l-0.5,0l0,-0.102l-0.699,0l0,-0.097l-0.403,0zm-26.398,13.796l0,0.102l-1.5,0l0,0.102l-1,0l0,0.097l-0.602,0l0,0.102l-0.597,0l0,0.097l-0.602,0l0,0.102l-0.398,0l0,0.102l-0.301,0l0,0.097l-0.403,0l0,0.102l-0.398,0l0,0.097l-0.301,0l0,0.102l-0.199,0l0,0.102l-0.301,0l0,0.097l-0.301,0l0,0.102l-0.199,0l0,0.097l-0.301,0l0,0.102l-0.199,0l0,0.102l-0.199,0l0,0.097l-0.102,0l0,0.102l-0.199,0l0,0.097l-0.199,0l0,0.102l-0.199,0l0,0.102l-0.199,0l0,0.097l-0.102,0l0,0.102l-0.199,0l0,0.097l-0.102,0l0,0.102l-0.097,0l0,0.102l-0.204,0l0,0.097l-0.097,0l0,0.102l-0.199,0l0,0.097l-0.102,0l0,0.102l-0.102,0l0,0.102l-0.097,0l0,0.097l-0.102,0l0,0.102l-0.097,0l0,0.097l-0.102,0l0,0.102l-0.102,0l0,0.102l-0.097,0l0,0.097l-0.102,0l0,0.102l-0.097,0l0,0.097l-0.102,0l0,0.102l-0.102,0l0,0.102l-0.097,0l0,0.097l-0.102,0l0,0.199l-0.097,0l0,0.102l-0.102,0l0,0.102l-0.102,0l0,0.199l-0.097,0l0,0.097l-0.102,0l0,0.102l-0.097,0l0,0.199l-0.102,0l0,0.102l-0.102,0l0,0.199l-0.097,0l0,0.199l-0.102,0l0,0.199l-0.097,0l0,0.102l-0.102,0l0,0.199l-0.102,0l0,0.199l-0.097,0l0,0.204l-0.102,0l0,0.199l-0.097,0l0,0.301l-0.102,0l0,0.199l-0.102,0l0,0.199l-0.097,0l0,0.301l-0.102,0l0,0.301l-0.097,0l0,0.296l-0.102,0l0,0.301l-0.102,0l0,0.403l-0.097,0l0,0.296l-0.102,0l0,0.403l-0.097,0l0,0.5l-0.102,0l0,0.5l-0.102,0l0,0.398l-0.097,0l0,0.801l-0.102,0l0,0.699l-0.097,0l0,0.903l-0.102,0l0,1.398l-0.102,0l0,5.898l0.102,0l0,1.403l0.102,0l0,0.898l0.097,0l0,0.699l0.102,0l0,0.704l0.097,0l0,0.5l0.102,0l0,0.5l0.102,0l0,0.5l0.097,0l0,0.398l0.102,0l0,0.301l0.097,0l0,0.398l0.102,0l0,0.301l0.102,0l0,0.301l0.097,0l0,0.301l0.102,0l0,0.296l0.097,0l0,0.204l0.102,0l0,0.199l0.102,0l0,0.301l0.097,0l0,0.199l0.102,0l0,0.199l0.097,0l0,0.199l0.102,0l0,0.199l0.102,0l0,0.204l0.097,0l0,0.097l0.102,0l0,0.199l0.097,0l0,0.204l0.102,0l0,0.097l0.102,0l0,0.199l0.097,0l0,0.102l0.102,0l0,0.199l0.097,0l0,0.102l0.102,0l0,0.097l0.102,0l0,0.102l0.097,0l0,0.199l0.102,0l0,0.102l0.097,0l0,0.097l0.102,0l0,0.102l0.102,0l0,0.102l0.097,0l0,0.097l0.102,0l0,0.102l0.097,0l0,0.097l0.102,0l0,0.102l0.102,0l0,0.102l0.097,0l0,0.097l0.102,0l0,0.102l0.097,0l0,0.097l0.102,0l0,0.102l0.102,0l0,0.102l0.097,0l0,0.097l0.199,0l0,0.102l0.102,0l0,0.097l0.199,0l0,0.102l0.102,0l0,0.102l0.097,0l0,0.097l0.204,0l0,0.102l0.097,0l0,0.097l0.199,0l0,0.102l0.204,0l0,0.102l0.199,0l0,0.097l0.199,0l0,0.102l0.199,0l0,0.097l0.199,0l0,0.102l0.204,0l0,0.102l0.199,0l0,0.097l0.301,0l0,0.102l0.199,0l0,0.097l0.301,0l0,0.102l0.296,0l0,0.102l0.301,0l0,0.097l0.403,0l0,0.102l0.398,0l0,0.097l0.301,0l0,0.102l0.5,0l0,0.102l0.597,0l0,0.097l0.602,0l0,0.102l0.801,0l0,0.097l1.097,0l0,0.102l5.301,0l0,-0.102l1.301,0l0,-0.097l0.898,0l0,-0.102l0.704,0l0,-0.097l0.699,0l0,-0.102l0.597,0l0,-0.102l0.5,0l0,-0.097l0.5,0l0,-0.102l0.403,0l0,-0.097l0.398,0l0,-0.102l0.403,0l0,-0.102l0.398,0l0,-0.097l0.301,0l0,-0.102l0.301,0l0,-0.097l0.296,0l0,-0.102l0.204,0l0,-0.199l-0.102,0l0,-0.5l-0.102,0l0,-0.403l-0.097,0l0,-0.398l-0.102,0l0,-0.398l-0.097,0l0,-0.403l-0.102,0l0,-0.398l-0.102,0l0,-0.301l-0.699,0l0,0.102l-0.801,0l0,0.097l-0.898,0l0,0.102l-1.301,0l0,0.097l-1.597,0l0,0.102l-3.602,0l0,0.102l-0.5,0l0,-0.102l-2.199,0l0,-0.102l-0.903,0l0,-0.097l-0.699,0l0,-0.102l-0.5,0l0,-0.097l-0.5,0l0,-0.102l-0.398,0l0,-0.102l-0.301,0l0,-0.097l-0.301,0l0,-0.102l-0.301,0l0,-0.097l-0.199,0l0,-0.102l-0.301,0l0,-0.102l-0.199,0l0,-0.097l-0.199,0l0,-0.102l-0.199,0l0,-0.097l-0.199,0l0,-0.102l-0.102,0l0,-0.102l-0.199,0l0,-0.097l-0.102,0l0,-0.102l-0.199,0l0,-0.097l-0.102,0l0,-0.102l-0.097,0l0,-0.102l-0.199,0l0,-0.097l-0.102,0l0,-0.102l-0.102,0l0,-0.097l-0.097,0l0,-0.102l-0.102,0l0,-0.102l-0.097,0l0,-0.097l-0.102,0l0,-0.102l-0.102,0l0,-0.097l-0.097,0l0,-0.102l-0.102,0l0,-0.199l-0.097,0l0,-0.102l-0.102,0l0,-0.097l-0.102,0l0,-0.204l-0.097,0l0,-0.097l-0.102,0l0,-0.102l-0.097,0l0,-0.199l-0.102,0l0,-0.199l-0.102,0l0,-0.199l-0.097,0l0,-0.204l-0.102,0l0,-0.097l-0.097,0l0,-0.301l-0.102,0l0,-0.199l-0.102,0l0,-0.301l-0.097,0l0,-0.199l-0.102,0l0,-0.199l-0.097,0l0,-0.403l-0.102,0l0,-0.301l-0.102,0l0,-0.398l-0.097,0l0,-0.398l-0.102,0l0,-0.5l-0.097,0l0,-0.5l-0.102,0l0,-0.602l-0.102,0l0,-0.801l-0.097,0l0,-1.097l-0.102,0l0,-2.403l-0.097,0l0,-1.5l0.097,0l0,-2.398l0.102,0l0,-1.102l0.097,0l0,-0.801l0.102,0l0,-0.597l0.102,0l0,-0.5l0.097,0l0,-0.5l0.102,0l0,-0.403l0.097,0l0,-0.398l0.102,0l0,-0.301l0.102,0l0,-0.301l0.097,0l0,-0.296l0.102,0l0,-0.204l0.097,0l0,-0.296l0.102,0l0,-0.204l0.102,0l0,-0.296l0.097,0l0,-0.102l0.102,0l0,-0.199l0.097,0l0,-0.199l0.102,0l0,-0.204l0.102,0l0,-0.097l0.097,0l0,-0.199l0.102,0l0,-0.102l0.097,0l0,-0.199l0.102,0l0,-0.102l0.102,0l0,-0.097l0.097,0l0,-0.102l0.102,0l0,-0.199l0.097,0l0,-0.102l0.102,0l0,-0.097l0.102,0l0,-0.102l0.097,0l0,-0.102l0.102,0l0,-0.097l0.097,0l0,-0.102l0.102,0l0,-0.097l0.199,0l0,-0.102l0.102,0l0,-0.102l0.097,0l0,-0.097l0.204,0l0,-0.102l0.097,0l0,-0.097l0.199,0l0,-0.102l0.102,0l0,-0.102l0.199,0l0,-0.097l0.199,0l0,-0.102l0.204,0l0,-0.097l0.199,0l0,-0.102l0.199,0l0,-0.102l0.301,0l0,-0.097l0.301,0l0,-0.102l0.199,0l0,-0.097l0.301,0l0,-0.102l0.398,0l0,-0.102l0.398,0l0,-0.097l0.5,0l0,-0.102l0.602,0l0,-0.097l0.699,0l0,-0.102l1.301,0l0,-0.102l4,0l0,0.102l2.102,0l0,0.102l1.398,0l0,0.097l1,0l0,0.102l0.898,0l0,0.097l0.801,0l0,0.102l0.602,0l0,0.102l0.597,0l0,0.097l0.301,0l0,-0.199l0.102,0l0,-0.602l0.097,0l0,-0.597l0.102,0l0,-0.699l0.102,0l0,-0.602l0.097,0l0,-0.5l-0.097,0l0,-0.102l-0.301,0l0,-0.097l-0.403,0l0,-0.102l-0.398,0l0,-0.097l-0.398,0l0,-0.102l-0.403,0l0,-0.102l-0.398,0l0,-0.097l-0.5,0l0,-0.102l-0.602,0l0,-0.097l-0.597,0l0,-0.102l-0.5,0l0,-0.102l-0.602,0l0,-0.097l-0.801,0l0,-0.102l-1,0l0,-0.097l-0.898,0l0,-0.102l-2.102,0l0,-0.102l-2.898,0zm77.898,0l0,0.102l-1.5,0l0,0.102l-1,0l0,0.097l-0.597,0l0,0.102l-0.704,0l0,0.097l-0.5,0l0,0.102l-0.398,0l0,0.102l-0.398,0l0,0.097l-0.403,0l0,0.102l-0.301,0l0,0.097l-0.296,0l0,0.102l-0.301,0l0,0.102l-0.199,0l0,0.097l-0.301,0l0,0.102l-0.301,0l0,0.097l-0.199,0l0,0.102l-0.199,0l0,0.102l-0.204,0l0,0.097l-0.199,0l0,0.102l-0.199,0l0,0.097l-0.199,0l0,0.102l-0.102,0l0,0.102l-0.199,0l0,0.097l-0.199,0l0,0.102l-0.102,0l0,0.097l-0.097,0l0,0.102l-0.204,0l0,0.102l-0.097,0l0,0.097l-0.102,0l0,0.102l-0.199,0l0,0.097l-0.102,0l0,0.102l-0.097,0l0,0.102l-0.102,0l0,0.097l-0.097,0l0,0.102l-0.102,0l0,0.097l-0.102,0l0,0.102l-0.097,0l0,0.102l-0.102,0l0,0.097l-0.199,0l0,0.102l-0.102,0l0,0.097l-0.097,0l0,0.204l-0.102,0l0,0.097l-0.097,0l0,0.102l-0.102,0l0,0.199l-0.102,0l0,0.102l-0.097,0l0,0.097l-0.102,0l0,0.102l-0.097,0l0,0.199l-0.102,0l0,0.102l-0.102,0l0,0.199l-0.097,0l0,0.199l-0.102,0l0,0.102l-0.097,0l0,0.199l-0.102,0l0,0.199l-0.102,0l0,0.102l-0.097,0l0,0.199l-0.102,0l0,0.199l-0.097,0l0,0.301l-0.102,0l0,0.199l-0.102,0l0,0.199l-0.097,0l0,0.301l-0.102,0l0,0.199l-0.097,0l0,0.301l-0.102,0l0,0.301l-0.102,0l0,0.301l-0.097,0l0,0.398l-0.102,0l0,0.301l-0.097,0l0,0.398l-0.102,0l0,0.403l-0.102,0l0,0.5l-0.097,0l0,0.5l-0.102,0l0,0.597l-0.097,0l0,0.801l-0.102,0l0,0.699l-0.102,0l0,1.301l-0.097,0l0,2.301l-0.102,0l0,2.301l0.102,0l0,2.296l0.097,0l0,1.301l0.102,0l0,0.699l0.102,0l0,0.801l0.097,0l0,0.602l0.102,0l0,0.5l0.097,0l0,0.5l0.102,0l0,0.398l0.102,0l0,0.403l0.097,0l0,0.296l0.102,0l0,0.403l0.097,0l0,0.301l0.102,0l0,0.296l0.102,0l0,0.301l0.097,0l0,0.199l0.102,0l0,0.301l0.097,0l0,0.199l0.102,0l0,0.204l0.102,0l0,0.296l0.097,0l0,0.204l0.102,0l0,0.199l0.097,0l0,0.097l0.102,0l0,0.204l0.102,0l0,0.199l0.097,0l0,0.199l0.102,0l0,0.102l0.097,0l0,0.199l0.102,0l0,0.097l0.102,0l0,0.204l0.097,0l0,0.097l0.102,0l0,0.102l0.097,0l0,0.199l0.102,0l0,0.102l0.102,0l0,0.097l0.097,0l0,0.102l0.102,0l0,0.199l0.097,0l0,0.102l0.102,0l0,0.097l0.102,0l0,0.102l0.097,0l0,0.097l0.102,0l0,0.102l0.097,0l0,0.102l0.102,0l0,0.097l0.102,0l0,0.102l0.097,0l0,0.097l0.102,0l0,0.102l0.199,0l0,0.102l0.102,0l0,0.097l0.199,0l0,0.102l0.097,0l0,0.097l0.102,0l0,0.102l0.199,0l0,0.102l0.102,0l0,0.097l0.097,0l0,0.102l0.204,0l0,0.097l0.199,0l0,0.102l0.199,0l0,0.102l0.199,0l0,0.097l0.102,0l0,0.102l0.199,0l0,0.097l0.199,0l0,0.102l0.199,0l0,0.102l0.301,0l0,0.097l0.199,0l0,0.102l0.301,0l0,0.097l0.301,0l0,0.102l0.199,0l0,0.102l0.403,0l0,0.097l0.296,0l0,0.102l0.403,0l0,0.097l0.398,0l0,0.102l0.5,0l0,0.102l0.5,0l0,0.097l0.602,0l0,0.102l0.801,0l0,0.097l1.097,0l0,0.102l5.403,0l0,-0.102l1.199,0l0,-0.097l0.898,0l0,-0.102l0.801,0l0,-0.097l0.699,0l0,-0.102l0.5,0l0,-0.102l0.602,0l0,-0.097l0.5,0l0,-0.102l0.398,0l0,-0.097l0.403,0l0,-0.102l0.398,0l0,-0.102l0.301,0l0,-0.097l0.301,0l0,-0.102l0.296,0l0,-0.097l0.403,0l0,-0.102l0.097,0l0,-0.5l-0.097,0l0,-0.398l-0.102,0l0,-0.403l-0.097,0l0,-0.398l-0.102,0l0,-0.403l-0.102,0l0,-0.5l-0.097,0l0,-0.398l-0.699,0l0,0.102l-0.801,0l0,0.097l-0.903,0l0,0.102l-1.398,0l0,0.097l-1.602,0l0,0.102l-3.5,0l0,0.102l-0.5,0l0,-0.102l-2.199,0l0,-0.102l-1,0l0,-0.097l-0.597,0l0,-0.102l-0.602,0l0,-0.097l-0.398,0l0,-0.102l-0.403,0l0,-0.102l-0.301,0l0,-0.097l-0.296,0l0,-0.102l-0.301,0l0,-0.097l-0.301,0l0,-0.102l-0.199,0l0,-0.102l-0.199,0l0,-0.097l-0.204,0l0,-0.102l-0.199,0l0,-0.097l-0.199,0l0,-0.102l-0.199,0l0,-0.102l-0.102,0l0,-0.097l-0.097,0l0,-0.102l-0.204,0l0,-0.097l-0.097,0l0,-0.102l-0.199,0l0,-0.102l-0.102,0l0,-0.097l-0.102,0l0,-0.102l-0.097,0l0,-0.097l-0.102,0l0,-0.102l-0.097,0l0,-0.102l-0.102,0l0,-0.097l-0.102,0l0,-0.102l-0.097,0l0,-0.097l-0.102,0l0,-0.102l-0.097,0l0,-0.102l-0.102,0l0,-0.199l-0.102,0l0,-0.097l-0.097,0l0,-0.102l-0.102,0l0,-0.102l-0.097,0l0,-0.199l-0.102,0l0,-0.199l-0.102,0l0,-0.102l-0.097,0l0,-0.199l-0.102,0l0,-0.199l-0.097,0l0,-0.199l-0.102,0l0,-0.199l-0.102,0l0,-0.204l-0.097,0l0,-0.296l-0.102,0l0,-0.204l-0.097,0l0,-0.296l-0.102,0l0,-0.301l-0.102,0l0,-0.301l-0.097,0l0,-0.398l-0.102,0l0,-0.301l-0.097,0l0,-0.5l-0.102,0l0,-0.5l-0.102,0l0,-0.5l-0.097,0l0,-0.903l-0.102,0l0,-0.796l-0.097,0l0,-1.602l-0.102,0l0,-4.199l0.102,0l0,-1.5l0.097,0l0,-0.801l0.102,0l0,-0.898l0.097,0l0,-0.5l0.102,0l0,-0.5l0.102,0l0,-0.5l0.097,0l0,-0.301l0.102,0l0,-0.403l0.097,0l0,-0.296l0.102,0l0,-0.301l0.102,0l0,-0.301l0.097,0l0,-0.199l0.102,0l0,-0.301l0.097,0l0,-0.199l0.102,0l0,-0.199l0.102,0l0,-0.204l0.097,0l0,-0.199l0.102,0l0,-0.199l0.097,0l0,-0.102l0.102,0l0,-0.199l0.102,0l0,-0.097l0.097,0l0,-0.204l0.102,0l0,-0.097l0.097,0l0,-0.102l0.102,0l0,-0.199l0.102,0l0,-0.102l0.097,0l0,-0.097l0.102,0l0,-0.102l0.097,0l0,-0.097l0.102,0l0,-0.102l0.102,0l0,-0.102l0.097,0l0,-0.097l0.102,0l0,-0.102l0.097,0l0,-0.097l0.102,0l0,-0.102l0.199,0l0,-0.102l0.102,0l0,-0.097l0.199,0l0,-0.102l0.102,0l0,-0.097l0.097,0l0,-0.102l0.199,0l0,-0.102l0.204,0l0,-0.097l0.199,0l0,-0.102l0.199,0l0,-0.097l0.199,0l0,-0.102l0.199,0l0,-0.102l0.301,0l0,-0.097l0.199,0l0,-0.102l0.301,0l0,-0.097l0.301,0l0,-0.102l0.398,0l0,-0.102l0.403,0l0,-0.097l0.5,0l0,-0.102l0.597,0l0,-0.097l0.704,0l0,-0.102l1.296,0l0,-0.102l4,0l0,0.102l2.102,0l0,0.102l1.398,0l0,0.097l1,0l0,0.102l0.903,0l0,0.097l0.801,0l0,0.102l0.597,0l0,0.102l0.602,0l0,0.097l0.301,0l0,-0.398l0.097,0l0,-0.602l0.102,0l0,-0.699l0.097,0l0,-0.602l0.102,0l0,-0.597l0.102,0l0,-0.301l-0.102,0l0,-0.102l-0.398,0l0,-0.097l-0.403,0l0,-0.102l-0.398,0l0,-0.097l-0.403,0l0,-0.102l-0.398,0l0,-0.102l-0.398,0l0,-0.097l-0.5,0l0,-0.102l-0.5,0l0,-0.097l-0.602,0l0,-0.102l-0.602,0l0,-0.102l-0.5,0l0,-0.097l-0.898,0l0,-0.102l-0.898,0l0,-0.097l-1,0l0,-0.102l-2,0l0,-0.102l-2.903,0zm61.699,0l0,0.102l-1.5,0l0,0.102l-1,0l0,0.097l-0.597,0l0,0.102l-0.602,0l0,0.097l-0.5,0l0,0.102l-0.398,0l0,0.102l-0.403,0l0,0.097l-0.296,0l0,0.102l-0.403,0l0,0.097l-0.301,0l0,0.102l-0.296,0l0,0.102l-0.204,0l0,0.097l-0.296,0l0,0.102l-0.204,0l0,0.097l-0.296,0l0,0.102l-0.204,0l0,0.102l-0.097,0l0,0.097l-0.199,0l0,0.102l-0.204,0l0,0.097l-0.199,0l0,0.102l-0.199,0l0,0.102l-0.199,0l0,0.097l-0.102,0l0,0.102l-0.097,0l0,0.097l-0.204,0l0,0.102l-0.097,0l0,0.102l-0.102,0l0,0.097l-0.199,0l0,0.102l-0.102,0l0,0.097l-0.199,0l0,0.102l-0.097,0l0,0.102l-0.102,0l0,0.097l-0.102,0l0,0.102l-0.097,0l0,0.097l-0.102,0l0,0.102l-0.097,0l0,0.102l-0.102,0l0,0.097l-0.102,0l0,0.102l-0.097,0l0,0.097l-0.102,0l0,0.102l-0.097,0l0,0.102l-0.102,0l0,0.199l-0.102,0l0,0.097l-0.097,0l0,0.102l-0.102,0l0,0.102l-0.097,0l0,0.199l-0.102,0l0,0.097l-0.102,0l0,0.102l-0.097,0l0,0.199l-0.102,0l0,0.102l-0.097,0l0,0.199l-0.102,0l0,0.199l-0.102,0l0,0.199l-0.097,0l0,0.102l-0.102,0l0,0.199l-0.097,0l0,0.199l-0.102,0l0,0.204l-0.102,0l0,0.199l-0.097,0l0,0.199l-0.102,0l0,0.301l-0.097,0l0,0.199l-0.102,0l0,0.199l-0.102,0l0,0.301l-0.097,0l0,0.301l-0.102,0l0,0.301l-0.097,0l0,0.296l-0.102,0l0,0.403l-0.102,0l0,0.301l-0.097,0l0,0.398l-0.102,0l0,0.5l-0.097,0l0,0.5l-0.102,0l0,0.398l-0.102,0l0,0.801l-0.097,0l0,0.699l-0.102,0l0,0.801l-0.097,0l0,1.403l-0.102,0l0,6l0.102,0l0,1.398l0.097,0l0,0.898l0.102,0l0,0.704l0.097,0l0,0.699l0.102,0l0,0.5l0.102,0l0,0.5l0.097,0l0,0.398l0.102,0l0,0.5l0.097,0l0,0.301l0.102,0l0,0.301l0.102,0l0,0.398l0.097,0l0,0.301l0.102,0l0,0.301l0.097,0l0,0.199l0.102,0l0,0.301l0.102,0l0,0.199l0.097,0l0,0.199l0.102,0l0,0.301l0.097,0l0,0.199l0.102,0l0,0.199l0.102,0l0,0.102l0.097,0l0,0.199l0.102,0l0,0.199l0.097,0l0,0.204l0.102,0l0,0.097l0.102,0l0,0.199l0.097,0l0,0.204l0.102,0l0,0.097l0.097,0l0,0.102l0.102,0l0,0.199l0.102,0l0,0.102l0.097,0l0,0.097l0.102,0l0,0.102l0.097,0l0,0.199l0.102,0l0,0.102l0.102,0l0,0.097l0.097,0l0,0.102l0.102,0l0,0.097l0.097,0l0,0.102l0.102,0l0,0.102l0.102,0l0,0.097l0.097,0l0,0.102l0.102,0l0,0.097l0.097,0l0,0.102l0.102,0l0,0.102l0.102,0l0,0.097l0.199,0l0,0.102l0.097,0l0,0.097l0.102,0l0,0.102l0.199,0l0,0.102l0.102,0l0,0.097l0.199,0l0,0.102l0.102,0l0,0.097l0.097,0l0,0.102l0.199,0l0,0.102l0.204,0l0,0.097l0.199,0l0,0.102l0.199,0l0,0.097l0.199,0l0,0.102l0.199,0l0,0.102l0.204,0l0,0.097l0.199,0l0,0.102l0.301,0l0,0.097l0.296,0l0,0.102l0.204,0l0,0.102l0.296,0l0,0.097l0.403,0l0,0.102l0.301,0l0,0.097l0.398,0l0,0.102l0.398,0l0,0.102l0.602,0l0,0.097l0.602,0l0,0.102l0.699,0l0,0.097l1.097,0l0,0.102l5,0l0,-0.102l1.204,0l0,-0.097l0.699,0l0,-0.102l0.699,0l0,-0.097l0.398,0l0,-0.102l0.5,0l0,-0.102l0.5,0l0,-0.097l0.301,0l0,-0.102l0.403,0l0,-0.097l0.296,0l0,-0.102l0.301,0l0,-0.102l0.199,0l0,-0.097l0.301,0l0,-0.102l0.301,0l0,-0.097l0.199,0l0,-0.102l0.199,0l0,-0.102l0.204,0l0,-0.097l0.199,0l0,-0.102l0.199,0l0,-0.097l0.199,0l0,-0.102l0.199,0l0,-0.102l0.102,0l0,-0.097l0.199,0l0,-0.102l0.102,0l0,-0.097l0.097,0l0,-0.102l0.204,0l0,-0.102l0.097,0l0,-0.097l0.199,0l0,-0.102l0.102,0l0,-0.097l0.102,0l0,-0.102l0.097,0l0,-0.102l0.102,0l0,-0.097l0.097,0l0,-0.102l0.102,0l0,-0.097l0.102,0l0,-0.102l0.097,0l0,-0.102l0.102,0l0,-0.097l0.097,0l0,-0.102l0.102,0l0,-0.097l0.102,0l0,-0.102l0.097,0l0,-0.102l0.102,0l0,-0.199l0.097,0l0,-0.097l0.102,0l0,-0.204l0.102,0l0,-0.097l0.097,0l0,-0.199l0.102,0l0,-0.102l0.097,0l0,-0.199l0.102,0l0,-0.199l0.102,0l0,-0.204l0.097,0l0,-0.199l0.102,0l0,-0.199l0.097,0l0,-0.301l0.102,0l0,-0.301l0.102,0l0,-0.199l0.097,0l0,-0.398l0.102,0l0,-0.403l0.097,0l0,-0.398l0.102,0l0,-0.602l0.102,0l0,-0.699l0.097,0l0,-3.199l-0.097,0l0,-0.898l-0.102,0l0,-0.602l-0.102,0l0,-0.602l-0.097,0l0,-0.398l-0.102,0l0,-0.301l-0.097,0l0,-0.301l-0.102,0l0,-0.296l-0.102,0l0,-0.301l-0.097,0l0,-0.199l-0.102,0l0,-0.204l-0.097,0l0,-0.199l-0.102,0l0,-0.097l-0.102,0l0,-0.204l-0.097,0l0,-0.199l-0.102,0l0,-0.097l-0.097,0l0,-0.204l-0.102,0l0,-0.199l-0.102,0l0,-0.097l-0.097,0l0,-0.102l-0.102,0l0,-0.102l-0.097,0l0,-0.097l-0.102,0l0,-0.102l-0.102,0l0,-0.097l-0.097,0l0,-0.102l-0.102,0l0,-0.102l-0.097,0l0,-0.097l-0.102,0l0,-0.102l-0.102,0l0,-0.097l-0.199,0l0,-0.102l-0.097,0l0,-0.102l-0.204,0l0,-0.097l-0.199,0l0,-0.102l-0.199,0l0,-0.097l-0.102,0l0,-0.102l-0.199,0l0,-0.102l-0.199,0l0,-0.097l-0.301,0l0,-0.102l-0.398,0l0,-0.097l-0.301,0l0,-0.102l-0.398,0l0,-0.102l-0.403,0l0,-0.097l-1.199,0l0,-0.102l-17.801,0l0,-0.199l0.102,0l0,-1.102l0.097,0l0,-0.898l0.102,0l0,-0.699l0.102,0l0,-0.5l0.097,0l0,-0.5l0.102,0l0,-0.5l0.097,0l0,-0.403l0.102,0l0,-0.296l0.102,0l0,-0.403l0.097,0l0,-0.301l0.102,0l0,-0.199l0.097,0l0,-0.301l0.102,0l0,-0.199l0.102,0l0,-0.301l0.097,0l0,-0.199l0.102,0l0,-0.199l0.097,0l0,-0.199l0.102,0l0,-0.199l0.102,0l0,-0.102l0.097,0l0,-0.199l0.102,0l0,-0.102l0.097,0l0,-0.199l0.102,0l0,-0.102l0.102,0l0,-0.199l0.097,0l0,-0.097l0.102,0l0,-0.102l0.097,0l0,-0.102l0.102,0l0,-0.097l0.102,0l0,-0.102l0.097,0l0,-0.097l0.102,0l0,-0.204l0.097,0l0,-0.097l0.204,0l0,-0.102l0.097,0l0,-0.097l0.102,0l0,-0.102l0.097,0l0,-0.102l0.102,0l0,-0.097l0.199,0l0,-0.102l0.102,0l0,-0.097l0.199,0l0,-0.102l0.102,0l0,-0.102l0.199,0l0,-0.097l0.199,0l0,-0.102l0.199,0l0,-0.097l0.199,0l0,-0.102l0.204,0l0,-0.102l0.199,0l0,-0.097l0.301,0l0,-0.102l0.296,0l0,-0.097l0.301,0l0,-0.102l0.301,0l0,-0.102l0.5,0l0,-0.097l0.398,0l0,-0.102l0.602,0l0,-0.097l0.699,0l0,-0.102l1.301,0l0,-0.102l3.602,0l0,0.102l2.199,0l0,0.102l1.597,0l0,0.097l1.204,0l0,0.102l1.097,0l0,0.097l1.102,0l0,0.102l0.801,0l0,0.102l0.898,0l0,0.097l0.801,0l0,0.102l0.097,0l0,-0.102l0.102,0l0,-0.597l0.102,0l0,-0.602l0.097,0l0,-0.602l0.102,0l0,-0.597l0.097,0l0,-0.699l-0.097,0l0,-0.102l-0.301,0l0,-0.102l-0.398,0l0,-0.097l-0.301,0l0,-0.102l-0.301,0l0,-0.097l-0.5,0l0,-0.102l-0.398,0l0,-0.102l-0.403,0l0,-0.097l-0.597,0l0,-0.102l-0.602,0l0,-0.097l-0.602,0l0,-0.102l-0.699,0l0,-0.102l-0.699,0l0,-0.097l-1,0l0,-0.102l-0.898,0l0,-0.097l-1.403,0l0,-0.102l-1.801,0l0,-0.102l-3.5,0zm36.403,0.102l0,0.102l-2,0l0,0.097l-1.403,0l0,0.102l-1.199,0l0,0.097l-1,0l0,0.102l-0.898,0l0,0.102l-0.801,0l0,0.097l-0.801,0l0,0.102l-0.699,0l0,0.097l-0.398,0l0,0.102l0.097,0l0,1l0.102,0l0,0.898l0.097,0l0,0.903l0.102,0l0,0.5l1.102,0l0,-0.102l1.199,0l0,-0.097l1.699,0l0,-0.102l2.102,0l0,-0.102l8,0l0,0.102l1.898,0l0,0.102l1,0l0,0.097l0.699,0l0,0.102l0.602,0l0,0.097l0.5,0l0,0.102l0.301,0l0,0.102l0.296,0l0,0.097l0.301,0l0,0.102l0.301,0l0,0.097l0.199,0l0,0.102l0.199,0l0,0.102l0.204,0l0,0.097l0.097,0l0,0.102l0.199,0l0,0.097l0.102,0l0,0.102l0.102,0l0,0.102l0.097,0l0,0.097l0.199,0l0,0.199l0.102,0l0,0.102l0.102,0l0,0.102l0.097,0l0,0.097l0.102,0l0,0.199l0.097,0l0,0.204l0.102,0l0,0.097l0.102,0l0,0.301l0.097,0l0,0.301l0.102,0l0,0.301l0.097,0l0,0.398l0.102,0l0,0.801l0.102,0l0,1.398l-0.102,0l0,1l-0.102,0l0,0.301l-0.097,0l0,0.398l-0.102,0l0,0.301l-0.097,0l0,0.199l-0.102,0l0,0.204l-0.102,0l0,0.199l-0.097,0l0,0.199l-0.102,0l0,0.102l-0.097,0l0,0.097l-0.102,0l0,0.102l-0.102,0l0,0.097l-0.097,0l0,0.102l-0.102,0l0,0.102l-0.097,0l0,0.097l-0.102,0l0,0.102l-0.102,0l0,0.097l-0.199,0l0,0.102l-0.097,0l0,0.102l-0.204,0l0,0.097l-0.097,0l0,0.102l-0.199,0l0,0.097l-0.204,0l0,0.102l-0.296,0l0,0.102l-0.204,0l0,0.097l-0.296,0l0,0.102l-0.301,0l0,0.097l-0.403,0l0,0.102l-0.398,0l0,0.102l-0.398,0l0,0.097l-0.5,0l0,0.102l-0.5,0l0,0.097l-0.5,0l0,0.102l-0.602,0l0,0.102l-0.5,0l0,0.097l-0.5,0l0,0.102l-0.5,0l0,0.097l-0.602,0l0,0.102l-0.5,0l0,0.102l-0.5,0l0,0.097l-0.597,0l0,0.102l-0.5,0l0,0.097l-0.5,0l0,0.102l-0.5,0l0,0.102l-0.602,0l0,0.097l-0.5,0l0,0.102l-0.5,0l0,0.097l-0.597,0l0,0.102l-0.5,0l0,0.102l-0.5,0l0,0.097l-0.5,0l0,0.102l-0.403,0l0,0.097l-0.398,0l0,0.102l-0.403,0l0,0.102l-0.398,0l0,0.097l-0.398,0l0,0.102l-0.204,0l0,0.097l-0.296,0l0,0.102l-0.204,0l0,0.102l-0.296,0l0,0.097l-0.204,0l0,0.102l-0.296,0l0,0.097l-0.102,0l0,0.102l-0.199,0l0,0.102l-0.199,0l0,0.097l-0.102,0l0,0.102l-0.199,0l0,0.097l-0.199,0l0,0.102l-0.102,0l0,0.102l-0.199,0l0,0.097l-0.102,0l0,0.102l-0.097,0l0,0.097l-0.102,0l0,0.102l-0.102,0l0,0.102l-0.097,0l0,0.097l-0.102,0l0,0.102l-0.097,0l0,0.097l-0.102,0l0,0.102l-0.102,0l0,0.102l-0.097,0l0,0.097l-0.102,0l0,0.102l-0.097,0l0,0.097l-0.102,0l0,0.204l-0.102,0l0,0.097l-0.097,0l0,0.199l-0.102,0l0,0.102l-0.097,0l0,0.199l-0.102,0l0,0.102l-0.102,0l0,0.199l-0.097,0l0,0.301l-0.102,0l0,0.301l-0.097,0l0,0.199l-0.102,0l0,0.301l-0.102,0l0,0.199l-0.097,0l0,0.5l-0.102,0l0,0.5l-0.097,0l0,0.5l-0.102,0l0,0.898l-0.102,0l0,3.199l0.102,0l0,0.903l0.102,0l0,0.597l0.097,0l0,0.403l0.102,0l0,0.398l0.097,0l0,0.301l0.102,0l0,0.301l0.102,0l0,0.301l0.097,0l0,0.199l0.102,0l0,0.199l0.097,0l0,0.199l0.102,0l0,0.199l0.102,0l0,0.204l0.097,0l0,0.097l0.102,0l0,0.102l0.097,0l0,0.199l0.102,0l0,0.102l0.102,0l0,0.199l0.097,0l0,0.097l0.102,0l0,0.102l0.097,0l0,0.102l0.102,0l0,0.097l0.102,0l0,0.102l0.097,0l0,0.097l0.102,0l0,0.102l0.199,0l0,0.102l0.102,0l0,0.097l0.199,0l0,0.102l0.097,0l0,0.097l0.102,0l0,0.102l0.199,0l0,0.102l0.199,0l0,0.097l0.204,0l0,0.102l0.199,0l0,0.097l0.199,0l0,0.102l0.301,0l0,0.102l0.301,0l0,0.097l0.199,0l0,0.102l0.398,0l0,0.097l0.403,0l0,0.102l0.296,0l0,0.102l0.602,0l0,0.097l0.602,0l0,0.102l0.796,0l0,0.097l1.102,0l0,0.102l7.301,0l0,-0.102l1.801,0l0,-0.097l1.699,0l0,-0.102l1.301,0l0,-0.097l1.097,0l0,-0.102l1.102,0l0,-0.102l1,0l0,-0.097l0.699,0l0,-0.102l0.801,0l0,-0.097l0.801,0l0,-0.102l0.597,0l0,-0.199l-0.097,0l0,-0.699l-0.102,0l0,-0.801l-0.102,0l0,-0.801l-0.097,0l0,-0.699l-0.102,0l0,-0.199l-0.597,0l0,0.097l-2.204,0l0,0.102l-2.199,0l0,0.097l-3,0l0,0.102l-4.801,0l0,0.102l-3.097,0l0,-0.102l-1.801,0l0,-0.102l-0.801,0l0,-0.097l-0.597,0l0,-0.102l-0.301,0l0,-0.097l-0.403,0l0,-0.102l-0.199,0l0,-0.102l-0.301,0l0,-0.097l-0.097,0l0,-0.102l-0.199,0l0,-0.097l-0.204,0l0,-0.102l-0.097,0l0,-0.102l-0.102,0l0,-0.097l-0.097,0l0,-0.102l-0.102,0l0,-0.097l-0.102,0l0,-0.102l-0.097,0l0,-0.102l-0.102,0l0,-0.097l-0.097,0l0,-0.199l-0.102,0l0,-0.204l-0.102,0l0,-0.199l-0.097,0l0,-0.301l-0.102,0l0,-0.296l-0.097,0l0,-0.403l-0.102,0l0,-0.597l-0.102,0l0,-2.801l0.102,0l0,-0.5l0.102,0l0,-0.403l0.097,0l0,-0.296l0.102,0l0,-0.204l0.097,0l0,-0.296l0.102,0l0,-0.204l0.102,0l0,-0.199l0.097,0l0,-0.097l0.102,0l0,-0.102l0.097,0l0,-0.102l0.102,0l0,-0.199l0.102,0l0,-0.097l0.097,0l0,-0.102l0.199,0l0,-0.102l0.102,0l0,-0.097l0.102,0l0,-0.102l0.199,0l0,-0.097l0.097,0l0,-0.102l0.204,0l0,-0.102l0.199,0l0,-0.097l0.199,0l0,-0.102l0.199,0l0,-0.097l0.301,0l0,-0.102l0.301,0l0,-0.102l0.301,0l0,-0.097l0.296,0l0,-0.102l0.403,0l0,-0.097l0.398,0l0,-0.102l0.5,0l0,-0.102l0.5,0l0,-0.097l0.602,0l0,-0.102l0.5,0l0,-0.097l0.5,0l0,-0.102l0.5,0l0,-0.102l0.597,0l0,-0.097l0.5,0l0,-0.102l0.5,0l0,-0.097l0.602,0l0,-0.102l0.5,0l0,-0.102l0.5,0l0,-0.097l0.602,0l0,-0.102l0.5,0l0,-0.097l0.5,0l0,-0.102l0.597,0l0,-0.102l0.5,0l0,-0.097l0.5,0l0,-0.102l0.602,0l0,-0.097l0.5,0l0,-0.102l0.5,0l0,-0.102l0.398,0l0,-0.097l0.403,0l0,-0.102l0.398,0l0,-0.097l0.398,0l0,-0.102l0.301,0l0,-0.102l0.301,0l0,-0.097l0.199,0l0,-0.102l0.301,0l0,-0.097l0.199,0l0,-0.102l0.301,0l0,-0.102l0.199,0l0,-0.097l0.199,0l0,-0.102l0.204,0l0,-0.097l0.097,0l0,-0.102l0.199,0l0,-0.102l0.204,0l0,-0.097l0.199,0l0,-0.102l0.097,0l0,-0.097l0.204,0l0,-0.102l0.097,0l0,-0.102l0.102,0l0,-0.097l0.097,0l0,-0.102l0.102,0l0,-0.097l0.102,0l0,-0.102l0.097,0l0,-0.102l0.199,0l0,-0.097l0.102,0l0,-0.102l0.102,0l0,-0.097l0.097,0l0,-0.204l0.102,0l0,-0.097l0.097,0l0,-0.102l0.102,0l0,-0.199l0.102,0l0,-0.102l0.097,0l0,-0.199l0.102,0l0,-0.097l0.097,0l0,-0.102l0.102,0l0,-0.301l0.102,0l0,-0.199l0.097,0l0,-0.199l0.102,0l0,-0.301l0.097,0l0,-0.199l0.102,0l0,-0.199l0.102,0l0,-0.403l0.097,0l0,-0.5l0.102,0l0,-0.398l0.097,0l0,-0.5l0.102,0l0,-4.199l-0.102,0l0,-0.801l-0.097,0l0,-0.403l-0.102,0l0,-0.5l-0.097,0l0,-0.296l-0.102,0l0,-0.301l-0.102,0l0,-0.301l-0.097,0l0,-0.301l-0.102,0l0,-0.199l-0.097,0l0,-0.199l-0.102,0l0,-0.199l-0.102,0l0,-0.102l-0.097,0l0,-0.199l-0.102,0l0,-0.199l-0.097,0l0,-0.102l-0.102,0l0,-0.102l-0.102,0l0,-0.199l-0.097,0l0,-0.097l-0.102,0l0,-0.102l-0.097,0l0,-0.102l-0.102,0l0,-0.097l-0.102,0l0,-0.102l-0.097,0l0,-0.097l-0.102,0l0,-0.102l-0.097,0l0,-0.102l-0.102,0l0,-0.097l-0.102,0l0,-0.102l-0.097,0l0,-0.097l-0.199,0l0,-0.102l-0.102,0l0,-0.102l-0.199,0l0,-0.097l-0.102,0l0,-0.102l-0.199,0l0,-0.097l-0.199,0l0,-0.102l-0.199,0l0,-0.102l-0.204,0l0,-0.097l-0.199,0l0,-0.102l-0.199,0l0,-0.097l-0.301,0l0,-0.102l-0.301,0l0,-0.102l-0.296,0l0,-0.097l-0.301,0l0,-0.102l-0.403,0l0,-0.097l-0.398,0l0,-0.102l-0.602,0l0,-0.102l-0.5,0l0,-0.097l-0.796,0l0,-0.102l-0.903,0l0,-0.097l-1.5,0l0,-0.102l-7.398,0zm-65.699,0.199l0,0.102l-1.102,0l0,0.097l-0.398,0l0,0.102l-0.403,0l0,0.102l-0.398,0l0,0.097l-0.301,0l0,0.102l-0.199,0l0,0.097l-0.199,0l0,0.102l-0.204,0l0,0.102l-0.199,0l0,0.097l-0.199,0l0,0.102l-0.199,0l0,0.097l-0.199,0l0,0.102l-0.102,0l0,0.102l-0.102,0l0,0.097l-0.199,0l0,0.102l-0.097,0l0,0.097l-0.102,0l0,0.102l-0.102,0l0,0.102l-0.199,0l0,0.097l-0.097,0l0,0.102l-0.102,0l0,0.097l-0.102,0l0,0.102l-0.097,0l0,0.199l-0.102,0l0,0.102l-0.097,0l0,0.097l-0.102,0l0,0.102l-0.102,0l0,0.199l-0.097,0l0,0.102l-0.102,0l0,0.097l-0.097,0l0,0.204l-0.102,0l0,0.199l-0.102,0l0,0.199l-0.097,0l0,0.199l-0.102,0l0,0.199l-0.097,0l0,0.204l-0.102,0l0,0.199l-0.102,0l0,0.398l-0.097,0l0,0.403l-0.102,0l0,0.398l-0.097,0l0,0.398l-0.102,0l0,0.903l-0.102,0l0,43.097l4.5,0l0,-41.398l0.102,0l0,-1l0.102,0l0,-0.398l0.097,0l0,-0.403l0.102,0l0,-0.199l0.097,0l0,-0.199l0.102,0l0,-0.199l0.102,0l0,-0.204l0.097,0l0,-0.199l0.102,0l0,-0.097l0.097,0l0,-0.102l0.102,0l0,-0.102l0.102,0l0,-0.199l0.097,0l0,-0.097l0.199,0l0,-0.102l0.102,0l0,-0.102l0.102,0l0,-0.097l0.199,0l0,-0.102l0.097,0l0,-0.097l0.204,0l0,-0.102l0.199,0l0,-0.102l0.199,0l0,-0.097l0.199,0l0,-0.102l0.403,0l0,-0.097l0.398,0l0,-0.102l0.699,0l0,-0.102l4.403,0l0,-0.597l0.097,0l0,-0.602l0.102,0l0,-0.699l0.097,0l0,-0.699l0.102,0l0,-0.699l0.102,0l0,-0.204l-0.204,0l0,-0.097l-0.398,0l0,-0.102l-0.398,0l0,-0.097l-0.602,0l0,-0.102l-0.699,0l0,-0.102l-0.801,0l0,-0.097l-1.102,0l0,-0.102l-2.296,0zm19.597,19.199l0,-0.097l16.102,0l0,0.097l1.097,0l0,0.102l0.301,0l0,0.102l0.301,0l0,0.097l0.301,0l0,0.102l0.199,0l0,0.097l0.102,0l0,0.102l0.199,0l0,0.102l0.097,0l0,0.097l0.204,0l0,0.102l0.097,0l0,0.097l0.102,0l0,0.204l0.097,0l0,0.097l0.102,0l0,0.102l0.102,0l0,0.097l0.097,0l0,0.102l0.102,0l0,0.301l0.097,0l0,0.199l0.102,0l0,0.199l0.102,0l0,0.199l0.097,0l0,0.301l0.102,0l0,0.403l0.097,0l0,0.5l0.102,0l0,0.796l0.102,0l0,1.704l-0.102,0l0,1.097l-0.102,0l0,0.403l-0.097,0l0,0.398l-0.102,0l0,0.301l-0.097,0l0,0.301l-0.102,0l0,0.296l-0.102,0l0,0.102l-0.097,0l0,0.199l-0.102,0l0,0.199l-0.097,0l0,0.102l-0.102,0l0,0.199l-0.102,0l0,0.199l-0.097,0l0,0.102l-0.102,0l0,0.102l-0.097,0l0,0.097l-0.102,0l0,0.102l-0.102,0l0,0.097l-0.097,0l0,0.102l-0.102,0l0,0.102l-0.097,0l0,0.097l-0.102,0l0,0.102l-0.102,0l0,0.097l-0.199,0l0,0.102l-0.097,0l0,0.102l-0.204,0l0,0.097l-0.199,0l0,0.102l-0.199,0l0,0.097l-0.199,0l0,0.102l-0.199,0l0,0.102l-0.102,0l0,0.097l-0.398,0l0,0.102l-0.301,0l0,0.097l-0.301,0l0,0.102l-0.301,0l0,0.102l-0.398,0l0,0.097l-0.602,0l0,0.102l-0.597,0l0,0.097l-0.704,0l0,0.102l-2.199,0l0,0.102l-0.301,0l0,-0.102l-2,0l0,-0.102l-0.796,0l0,-0.097l-0.704,0l0,-0.102l-0.398,0l0,-0.097l-0.398,0l0,-0.102l-0.403,0l0,-0.102l-0.301,0l0,-0.097l-0.296,0l0,-0.102l-0.204,0l0,-0.097l-0.296,0l0,-0.102l-0.204,0l0,-0.102l-0.199,0l0,-0.097l-0.097,0l0,-0.102l-0.204,0l0,-0.097l-0.199,0l0,-0.102l-0.097,0l0,-0.102l-0.204,0l0,-0.097l-0.097,0l0,-0.102l-0.102,0l0,-0.097l-0.199,0l0,-0.102l-0.102,0l0,-0.102l-0.097,0l0,-0.097l-0.102,0l0,-0.102l-0.097,0l0,-0.097l-0.102,0l0,-0.102l-0.102,0l0,-0.102l-0.097,0l0,-0.097l-0.102,0l0,-0.102l-0.097,0l0,-0.199l-0.102,0l0,-0.102l-0.102,0l0,-0.097l-0.097,0l0,-0.199l-0.102,0l0,-0.102l-0.097,0l0,-0.199l-0.102,0l0,-0.199l-0.102,0l0,-0.102l-0.097,0l0,-0.199l-0.102,0l0,-0.199l-0.097,0l0,-0.204l-0.102,0l0,-0.296l-0.102,0l0,-0.204l-0.097,0l0,-0.296l-0.102,0l0,-0.301l-0.097,0l0,-0.301l-0.102,0l0,-0.398l-0.102,0l0,-0.301l-0.097,0l0,-0.5l-0.102,0l0,-0.5l-0.097,0l0,-0.699l-0.102,0l0,-0.704l-0.102,0l0,-1.097l-0.097,0l0,-1.903l-0.102,0l0,-0.5"/>
    </g>
    <g id="g74">
     <path fill="url(#linearGradient100)" id="path102" d="m328.82,74.39301c-3.968,-3.473 -8.57,-4.816 -11.683,-4.816c-3.469,0 -5.028,1.418 -5.028,4.816l0,1.844c0,2.617 0.922,4.246 4.106,4.386l12.605,0l0,-6.23zm-5.382,25.488c-4.817,0 -11.895,-0.781 -16.782,-1.629l0.637,-5.027c5.383,0.422 11.262,0.852 14.656,0.852c5.313,0 6.801,-1.344 6.871,-5.598l0,-2.688l-13.879,0c-6.23,0 -9.769,-3.113 -9.769,-8.64l0,-3.61c0,-6.296 4.25,-9.769 10.547,-9.769c6.301,0 11.187,3.398 13.804,6.09l0.782,-5.453l5.379,0l0,24.07c0,8.711 -4.246,11.402 -12.246,11.402zm-37.446,-26.058c-4.461,-3.043 -6.656,-4.317 -10.336,-4.317c-5.242,0 -7.367,2.551 -7.367,12.391c0,9.84 2.125,12.035 7.793,12.035c3.465,0 6.156,-0.707 9.91,-1.699l0,-18.41zm0,29.738c0,-2.406 0.07,-4.531 0.281,-6.797c-3.679,2.125 -7.789,3.117 -11.894,3.117c-8.777,0 -13.168,-4.461 -13.168,-18.054c0,-11.895 3.398,-18.27 12.105,-18.27c5.383,0 10.055,2.621 13.594,5.598l0.57,-4.746l5.379,0l0,49.562l-6.867,0l0,-10.41zm78.149,-33.559l-3.188,0c-2.973,0 -4.527,1.489 -4.457,4.391l0,39.578l-6.867,0l0,-41.141c0,-5.875 3.394,-9.058 8.707,-9.058c1.769,0 5.168,0.285 6.586,0.922l-0.781,5.308zm-144.34,39.078l-6.793,0l0,-10.191l-6.305,-0.281l0,-4.961l6.305,0l0,-20.176c0,-6.226 3.113,-9.699 8.988,-9.699c1.84,0 5.879,0.285 8.145,0.922l-0.782,5.308l-5.027,0c-3.324,0 -4.531,1.133 -4.531,4.391l0,19.254l10.691,0l0,5.312l-10.691,0l0,10.121zm21.73,-44.671l6.797,0l0,34.55l-6.797,0l0,-34.55"/>
    </g>
    <g id="g28">
     <path fill="url(#linearGradient56)" id="path58" d="m86.43,3.11601l0,3.117c44.293,0 80.199,35.906 80.199,80.199l3.117,0c0,-46.016 -37.301,-83.316 -83.316,-83.316zm-58.379,83.316l-3.11,0c0,33.961 27.528,61.488 61.489,61.488l0,-3.117c-32.239,0 -58.375,-26.133 -58.375,-58.371l6.226,0c0,-28.801 23.348,-52.148 52.149,-52.148l0,-3.118c30.523,0 55.261,24.743 55.261,55.266l3.118,0c0,-32.242 -26.137,-58.379 -58.379,-58.379c-32.239,0 -58.379,26.137 -58.379,58.379zm58.379,-48.941c27.031,0 48.941,21.91 48.941,48.941l-3.031,0c0,-25.355 -20.555,-45.914 -45.91,-45.914l0,3.117c23.636,0 42.797,19.16 42.797,42.797c0,23.602 -19.196,42.805 -42.797,42.805l0,-3.125c-21.914,0 -39.68,-17.766 -39.68,-39.68l-3.125,0c0,23.641 19.164,42.805 42.805,42.805l0,6.152c-27.039,0 -48.957,-21.918 -48.957,-48.957l-3.184,0c0,28.797 23.348,52.141 52.141,52.141l0,-3.184c27.086,0 48.941,-21.875 48.941,-48.957l3.203,0c0,-28.801 -23.344,-52.144 -52.144,-52.144l0,3.203zm36.562,48.941l3.117,0c0,-21.914 -17.765,-39.68 -39.679,-39.68l0,3.118c20.195,0 36.562,16.371 36.562,36.562zm-36.562,-33.504l0,3.156c16.761,0 30.347,13.586 30.347,30.348l3.157,0c0,-18.504 -15,-33.504 -33.504,-33.504zm-30.34,33.504l-3.121,0c0,18.48 14.98,33.461 33.461,33.461l0,-3.121c-16.754,0 -30.34,-13.586 -30.34,-30.34zm6.238,0c0,13.309 10.793,24.102 24.102,24.102l0,3.004c15.031,0 27.144,-12.075 27.144,-27.106c0,-14.992 -12.152,-27.144 -27.144,-27.144l0,3.039c-13.313,0 -24.106,10.793 -24.106,24.105l0.004,0zm-46.738,0c0,39.125 31.719,70.84 70.84,70.84c39.187,0 70.843,-31.652 70.843,-70.84c0,-39.129 -31.714,-70.848 -70.843,-70.848l0,3.118c37.406,0 67.73,30.324 67.73,67.73l-3.117,0c0,-35.684 -28.926,-64.613 -64.613,-64.613l0,3.117c33.965,0 61.496,27.531 61.496,61.496l3.117,0c0,35.742 -28.867,64.641 -64.613,64.641l0,3.082c-37.403,0 -67.723,-30.321 -67.723,-67.723l-3.117,0zm-9.348,0c0,44.285 35.903,80.188 80.188,80.188l0,-3.118c-42.567,0 -77.075,-34.504 -77.075,-77.07l-3.113,0zm157.266,0c0,-42.57 -34.508,-77.078 -77.078,-77.078l0,3.113c40.847,0 73.961,33.117 73.961,73.965l3.117,0zm9.344,0c0,47.73 -38.692,86.422 -86.422,86.422c-47.731,0 -86.422,-38.692 -86.422,-86.422l-0.008,0c0,-47.734 38.695,-86.434 86.43,-86.434c47.734,0 86.429,38.7 86.429,86.434l-0.007,0"/>
    </g>
   </g>
  </g>
 </g>
</svg>